<?xml version="1.0" encoding="utf-8"?>
<!-- Generator: Adobe Illustrator 19.1.0, SVG Export Plug-In . SVG Version: 6.00 Build 0)  -->
<svg version="1.1" id="Layer_1" xmlns="http://www.w3.org/2000/svg" xmlns:xlink="http://www.w3.org/1999/xlink" x="0px" y="0px"
	 viewBox="-260 351.2 90.8 90.8" style="enable-background:new -260 351.2 90.8 90.8;" xml:space="preserve">
<style type="text/css">
	.st0{fill:#FFFFFF;}
	.st1{fill:#29ADE4;}
	.st2{fill:none;stroke:#29ADE4;stroke-width:11;stroke-miterlimit:10;}
</style>
<g>
	<path class="st0" d="M-214.6,439.9c-23.9,0-43.4-19.4-43.4-43.4s19.4-43.4,43.4-43.4c23.9,0,43.4,19.4,43.4,43.4
		S-190.7,439.9-214.6,439.9z"/>
	<path class="st1" d="M-214.6,355.2c22.8,0,41.4,18.6,41.4,41.4c0,22.8-18.6,41.4-41.4,41.4s-41.4-18.6-41.4-41.4
		C-256,373.8-237.4,355.2-214.6,355.2 M-214.6,351.2c-25,0-45.4,20.3-45.4,45.4s20.3,45.4,45.4,45.4s45.4-20.3,45.4-45.4
		S-189.6,351.2-214.6,351.2L-214.6,351.2z"/>
</g>
<line class="st2" x1="-187.7" y1="381.5" x2="-242.2" y2="381.5"/>
<line class="st2" x1="-187.7" y1="397.2" x2="-242.2" y2="397.2"/>
<line class="st2" x1="-187.7" y1="413" x2="-242.2" y2="413"/>
</svg>
