<?xml version="1.0" encoding="utf-8"?>
<!-- Generator: Adobe Illustrator 19.1.0, SVG Export Plug-In . SVG Version: 6.00 Build 0)  -->
<svg version="1.1" id="Layer_1" xmlns="http://www.w3.org/2000/svg" xmlns:xlink="http://www.w3.org/1999/xlink" x="0px" y="0px"
	 viewBox="-260 351.3 90.7 90.7" style="enable-background:new -260 351.3 90.7 90.7;" xml:space="preserve">
<style type="text/css">
	.st0{fill:#29ADE4;}
	.st1{fill:none;}
	.st2{fill:#FFFFFF;}
	.st3{fill:#29ADE4;stroke:url(#SVGID_1_);stroke-width:2;stroke-miterlimit:10;}
</style>
<rect x="-115.3" y="364.3" class="st0" width="36" height="30"/>
<polygon class="st1" points="-247.8,362.9 -253.3,363.6 -256.7,359.1 -254.5,353.9 -248.9,353.3 -245.5,357.8 "/>
<polygon class="st1" points="-248.5,360.4 -246,361 -245.2,363.5 -247,365.4 -249.5,364.8 -250.3,362.3 "/>
<g>
	<path class="st2" d="M-214.4,440.2c-23.9,0-43.4-19.4-43.4-43.4s19.4-43.4,43.4-43.4c23.9,0,43.4,19.4,43.4,43.4
		S-190.5,440.2-214.4,440.2z"/>
	<path class="st0" d="M-214.4,355.5c22.8,0,41.4,18.6,41.4,41.4c0,22.8-18.6,41.4-41.4,41.4s-41.4-18.6-41.4-41.4
		S-237.2,355.5-214.4,355.5 M-214.4,351.5c-25,0-45.4,20.3-45.4,45.4c0,25,20.3,45.4,45.4,45.4S-169,422-169,396.9
		S-189.4,351.5-214.4,351.5L-214.4,351.5z"/>
</g>
<g>
	<rect x="-234.8" y="389.9" class="st0" width="39.9" height="29.6"/>
	<linearGradient id="SVGID_1_" gradientUnits="userSpaceOnUse" x1="-221.9424" y1="410.5725" x2="-207.4353" y2="410.5725">
		<stop  offset="1" style="stop-color:#FFFFFF"/>
		<stop  offset="1" style="stop-color:#F6F6F6"/>
		<stop  offset="1" style="stop-color:#C8C8C8"/>
		<stop  offset="1" style="stop-color:#9D9D9D"/>
		<stop  offset="1" style="stop-color:#777777"/>
		<stop  offset="1" style="stop-color:#575757"/>
		<stop  offset="1" style="stop-color:#3B3B3B"/>
		<stop  offset="1" style="stop-color:#252525"/>
		<stop  offset="1" style="stop-color:#141414"/>
		<stop  offset="1" style="stop-color:#090909"/>
		<stop  offset="1" style="stop-color:#020202"/>
		<stop  offset="1" style="stop-color:#000000"/>
	</linearGradient>
	<rect x="-220.9" y="400.6" class="st3" width="12.5" height="20"/>
	<rect x="-203.6" y="376.9" class="st0" width="5.9" height="11.2"/>
	<line class="st1" x1="-240.4" y1="388.7" x2="-214.9" y2="370"/>
	<line class="st1" x1="-214.9" y1="370" x2="-190.4" y2="389.9"/>
	<line class="st1" x1="-218.3" y1="383.3" x2="-193.8" y2="403.2"/>
	<line class="st1" x1="-208.4" y1="391.3" x2="-210.1" y2="376.6"/>
	<line class="st1" x1="-222.4" y1="375.4" x2="-228.5" y2="379.9"/>
	<line class="st1" x1="-223.1" y1="371.8" x2="-200.3" y2="375.4"/>
	<polygon class="st0" points="-238.9,392.7 -214.7,373.1 -190.4,392.7 	"/>
</g>
</svg>
