<?xml version="1.0" encoding="utf-8"?>
<!-- Generator: Adobe Illustrator 19.2.0, SVG Export Plug-In . SVG Version: 6.00 Build 0)  -->
<svg version="1.1" id="Layer_1" xmlns="http://www.w3.org/2000/svg" xmlns:xlink="http://www.w3.org/1999/xlink" x="0px" y="0px"
	 viewBox="0 0 90.7 90.7" style="enable-background:new 0 0 90.7 90.7;" xml:space="preserve">
<style type="text/css">
	.st0{fill:#FFFFFF;}
	.st1{fill:#29ADE4;}
	.st2{fill:#2BABE2;}
</style>
<g>
	<path class="st0" d="M45.4,88.7C21.5,88.7,2,69.3,2,45.3S21.4,1.9,45.4,1.9c23.9,0,43.4,19.4,43.4,43.4S69.3,88.7,45.4,88.7z"/>
	<path class="st1" d="M45.4,4c22.8,0,41.4,18.6,41.4,41.4S68.2,86.8,45.4,86.8S4,68.2,4,45.4S22.6,4,45.4,4 M45.4,0
		C20.4,0,0,20.3,0,45.4c0,25,20.3,45.4,45.4,45.4s45.4-20.3,45.4-45.4S70.4,0,45.4,0L45.4,0z"/>
</g>
<g>
	<g>
		<path class="st2" d="M70,24.6h-4.2c-0.2,0-0.4,0.1-0.5,0.3L58,38.1c-1.2,2.1-4.4,0.4-3.2-1.8l5.9-10.8c0.2-0.4-0.1-0.9-0.5-0.9
			h-5.9c-0.7,0-1.3,0.4-1.6,0.9l-6.9,12.5c-0.2,0.4-0.8,0.4-1.1,0L38,25.6c-0.3-0.6-0.9-0.9-1.6-0.9h-5.9c-0.5,0-0.8,0.5-0.5,0.9
			l5.9,10.8c1.2,2.2-2,3.9-3.2,1.8L25.5,25c-0.1-0.2-0.3-0.3-0.5-0.3h-4.2c-1.5,0-2.3,1.5-1.6,2.7L31,48.9c0.2,0.4,0.8,0.4,1.1,0
			c5.6-10.7,21-10.7,26.6,0c0.2,0.4,0.8,0.4,1.1,0l11.9-21.6C72.3,26.2,71.4,24.6,70,24.6z"/>
		<path class="st2" d="M46.5,42.7c-0.7-0.1-1.5-0.1-2.2,0c-6.7,0.6-12,6.2-12,13.1c0,7.3,5.9,13.2,13.2,13.2s13.2-5.9,13.2-13.2
			C58.5,48.9,53.1,43.3,46.5,42.7z M51.1,55.9l-1.8,1.8l0.4,2.5c0.2,1.2-1.1,2.1-2.2,1.6l-2.2-1.2l-2.2,1.2
			c-1.1,0.6-2.4-0.4-2.2-1.6l0.4-2.5l-1.8-1.8c-0.9-0.9-0.4-2.4,0.8-2.6l2.5-0.4l1.1-2.3c0.5-1.1,2.1-1.1,2.7,0l1.1,2.3l2.5,0.4
			C51.5,53.5,52,55,51.1,55.9z"/>
	</g>
</g>
</svg>
