<?xml version="1.0" encoding="utf-8"?>
<!-- Generator: Adobe Illustrator 19.1.0, SVG Export Plug-In . SVG Version: 6.00 Build 0)  -->
<svg version="1.1" id="Layer_1" xmlns="http://www.w3.org/2000/svg" xmlns:xlink="http://www.w3.org/1999/xlink" x="0px" y="0px"
	 viewBox="-260 351.3 90.7 90.7" style="enable-background:new -260 351.3 90.7 90.7;" xml:space="preserve">
<style type="text/css">
	.st0{fill:#FFFFFF;}
	.st1{fill:#29ADE4;}
	.st2{fill:#2BABE2;}
</style>
<g>
	<path class="st0" d="M-214.6,440c-23.9,0-43.4-19.4-43.4-43.4s19.4-43.4,43.4-43.4c23.9,0,43.4,19.4,43.4,43.4
		S-190.7,440-214.6,440z"/>
	<path class="st1" d="M-214.6,355.3c22.8,0,41.4,18.6,41.4,41.4c0,22.8-18.6,41.4-41.4,41.4s-41.4-18.6-41.4-41.4
		C-256,373.9-237.4,355.3-214.6,355.3 M-214.6,351.3c-25,0-45.4,20.3-45.4,45.4c0,25,20.3,45.4,45.4,45.4s45.4-20.3,45.4-45.4
		S-189.6,351.3-214.6,351.3L-214.6,351.3z"/>
</g>
<g>
	<g>
		<path class="st2" d="M-190,375.9h-4.2c-0.2,0-0.4,0.1-0.5,0.3l-7.3,13.2c-1.2,2.1-4.4,0.4-3.2-1.8l5.9-10.8
			c0.2-0.4-0.1-0.9-0.5-0.9h-5.9c-0.7,0-1.3,0.4-1.6,0.9l-6.9,12.5c-0.2,0.4-0.8,0.4-1.1,0l-6.7-12.4c-0.3-0.6-0.9-0.9-1.6-0.9h-5.9
			c-0.5,0-0.8,0.5-0.5,0.9l5.9,10.8c1.2,2.2-2,3.9-3.2,1.8l-7.2-13.2c-0.1-0.2-0.3-0.3-0.5-0.3h-4.2c-1.5,0-2.3,1.5-1.6,2.7
			l11.8,21.5c0.2,0.4,0.8,0.4,1.1,0c5.6-10.7,21-10.7,26.6,0c0.2,0.4,0.8,0.4,1.1,0l11.9-21.6C-187.7,377.5-188.6,375.9-190,375.9z"
			/>
		<path class="st2" d="M-213.5,394c-0.7-0.1-1.5-0.1-2.2,0c-6.7,0.6-12,6.2-12,13.1c0,7.3,5.9,13.2,13.2,13.2s13.2-5.9,13.2-13.2
			C-201.5,400.2-206.9,394.6-213.5,394z M-208.9,407.2l-1.8,1.8l0.4,2.5c0.2,1.2-1.1,2.1-2.2,1.6l-2.2-1.2l-2.2,1.2
			c-1.1,0.6-2.4-0.4-2.2-1.6l0.4-2.5l-1.8-1.8c-0.9-0.9-0.4-2.4,0.8-2.6l2.5-0.4l1.1-2.3c0.5-1.1,2.1-1.1,2.7,0l1.1,2.3l2.5,0.4
			C-208.5,404.8-208,406.3-208.9,407.2z"/>
	</g>
</g>
</svg>
