<?xml version="1.0" encoding="utf-8"?>
<!-- Generator: Adobe Illustrator 19.2.0, SVG Export Plug-In . SVG Version: 6.00 Build 0)  -->
<svg version="1.1" id="Layer_1" xmlns="http://www.w3.org/2000/svg" xmlns:xlink="http://www.w3.org/1999/xlink" x="0px" y="0px"
	 viewBox="0 0 90.8 90.8" style="enable-background:new 0 0 90.8 90.8;" xml:space="preserve">
<style type="text/css">
	.st0{fill:#FFFFFF;}
	.st1{fill:#29ADE4;}
</style>
<g>
	<path class="st0" d="M45.4,88.7C21.5,88.7,2,69.3,2,45.3S21.4,1.9,45.4,1.9c23.9,0,43.4,19.4,43.4,43.4S69.3,88.7,45.4,88.7z"/>
	<path class="st1" d="M45.4,0C20.4,0,0,20.3,0,45.4s20.3,45.4,45.4,45.4s45.4-20.3,45.4-45.4S70.4,0,45.4,0L45.4,0z"/>
</g>
<g>
	<g>
		<path class="st0" d="M27.9,41.1c-1.6,0-2.9,1.6-2.9,3.7v24.3c0,2,1.3,3.7,2.9,3.7h35c1.6,0,2.9-1.7,2.9-3.7V44.8
			c0-2.1-1.3-3.7-2.9-3.7l0,0"/>
	</g>
</g>
<path class="st0" d="M45.9,12.6c-0.2,0-0.7,0-1,0c-8.9,0.2-16,7.6-16,16.6v12.6h6.9V29.2c0-5.3,4.3-9.7,9.7-9.7
	c5.3,0,9.7,4.4,9.7,9.7L55.1,34h6.8v-4.8C61.9,20.2,54.8,12.8,45.9,12.6z"/>
<g>
	<g>
		<path class="st1" d="M31.8,58c-0.2-0.2-0.3-0.5-0.3-0.7s0.1-0.5,0.3-0.7l1.5-1.5c0.4-0.4,1.1-0.4,1.5,0l0.1,0.1l5.9,6.3
			c0.2,0.2,0.5,0.2,0.7,0l14.3-14.9H56c0.4-0.4,1.1-0.4,1.5,0l1.5,1.5c0.4,0.4,0.4,1.1,0,1.5L41.9,67.4c-0.2,0.2-0.4,0.3-0.7,0.3
			s-0.5-0.1-0.7-0.3l-8.3-9L31.8,58z"/>
	</g>
</g>
</svg>
