<?xml version="1.0" encoding="utf-8"?>
<!-- Generator: Adobe Illustrator 19.2.0, SVG Export Plug-In . SVG Version: 6.00 Build 0)  -->
<svg version="1.1" id="Layer_1" xmlns="http://www.w3.org/2000/svg" xmlns:xlink="http://www.w3.org/1999/xlink" x="0px" y="0px"
	 viewBox="0 0 90.8 90.8" style="enable-background:new 0 0 90.8 90.8;" xml:space="preserve">
<style type="text/css">
	.st0{fill:#FFFFFF;}
	.st1{fill:#29ADE4;}
</style>
<g>
	<path class="st0" d="M45.4,88.7C21.5,88.7,2,69.3,2,45.3S21.4,1.9,45.4,1.9c23.9,0,43.4,19.4,43.4,43.4S69.3,88.7,45.4,88.7z"/>
	<path class="st1" d="M45.4,4c22.8,0,41.4,18.6,41.4,41.4S68.2,86.8,45.4,86.8S4,68.2,4,45.4S22.6,4,45.4,4 M45.4,0
		C20.4,0,0,20.3,0,45.4c0,25,20.3,45.4,45.4,45.4s45.4-20.3,45.4-45.4C90.8,20.3,70.4,0,45.4,0L45.4,0z"/>
</g>
<g>
	<path class="st1" d="M39.3,24H23.9c-0.5,0-1,0.2-1.3,0.6S22,25.4,22,25.9v42.2c0,0.5,0.2,1,0.6,1.3c0.4,0.4,0.8,0.6,1.3,0.6h15.4
		c0.5,0,1-0.2,1.3-0.6c0.4-0.4,0.6-0.8,0.6-1.3V25.9c0-0.5-0.2-1-0.6-1.3C40.3,24.2,39.9,24,39.3,24L39.3,24z"/>
	<path class="st1" d="M67.6,24.6c-0.4-0.4-0.8-0.6-1.3-0.6H50.9c-0.5,0-1,0.2-1.3,0.6C49.2,25,49,25.4,49,25.9v42.2
		c0,0.5,0.2,1,0.6,1.3c0.4,0.4,0.8,0.6,1.3,0.6h15.4c0.5,0,1-0.2,1.3-0.6c0.4-0.4,0.6-0.8,0.6-1.3V25.9C68.1,25.4,67.9,25,67.6,24.6
		L67.6,24.6z"/>
</g>
</svg>
