<?xml version="1.0" encoding="utf-8"?>
<!-- Generator: Adobe Illustrator 21.0.0, SVG Export Plug-In . SVG Version: 6.00 Build 0)  -->
<svg version="1.1" id="Layer_1" xmlns="http://www.w3.org/2000/svg" xmlns:xlink="http://www.w3.org/1999/xlink" x="0px" y="0px"
	 viewBox="0 0 90.7 90.7" style="enable-background:new 0 0 90.7 90.7;" xml:space="preserve">
<style type="text/css">
	.st0{fill:#FFFFFF;}
	.st1{fill:#BFBFBF;}
	.st2{fill:#BFBFBF;stroke:#FFFFFF;stroke-width:2;stroke-miterlimit:10;}
</style>
<g>
	<path class="st0" d="M45.4,88.7C21.5,88.7,2,69.3,2,45.3S21.4,1.9,45.4,1.9c23.9,0,43.4,19.4,43.4,43.4S69.3,88.7,45.4,88.7z"/>
	<path class="st1" d="M45.4,4c22.8,0,41.4,18.6,41.4,41.4S68.2,86.8,45.4,86.8S4,68.2,4,45.4S22.6,4,45.4,4 M45.4,0
		C20.4,0,0,20.3,0,45.4c0,25,20.3,45.4,45.4,45.4s45.4-20.3,45.4-45.4S70.4,0,45.4,0L45.4,0z"/>
</g>
<g>
	<path class="st1" d="M13.4,57.9v-8.8c0-1.7,1.4-3.1,3.1-3.1h15c1.7,0,3.1,1.4,3.1,3.1v8.8"/>
	<circle class="st2" cx="24" cy="39.8" r="9.1"/>
</g>
<g>
	<path class="st1" d="M55.1,57.9v-8.8c0-1.7,1.4-3.1,3.1-3.1h15c1.7,0,3.1,1.4,3.1,3.1v8.8"/>
	<circle class="st2" cx="65.7" cy="39.8" r="9.1"/>
</g>
<g>
	<path class="st1" d="M51.9,42.2c0,1.4,0,2.3-0.1,2.6c-0.2,0.6-0.8,1.6-1.8,3.1c-0.8,1.2-1.6,2.2-2.2,2.9c-0.2,0.3-0.9,0.4-2,0.4
		c-1,0-1.6,0-1.9-0.1c-0.2,0-0.3-0.1-0.4-0.3c-0.5-0.5-1.2-1.5-2.2-2.9c-1-1.5-1.6-2.5-1.8-3c-0.2-0.6-0.3-1.5-0.3-2.6
		c0-0.3,0-0.8,0-1.5s0-1.2,0-1.5c0-0.2,0.1-0.3,0.4-0.3c0.4,0,1.1,0,1.9,0s1.5,0,1.9,0c0.2,0,0.3,0.1,0.3,0.4c0,0.2,0,0.6-0.1,1.1
		s-0.1,0.8-0.1,1.1c0,0.9,0,1.6,0.1,2.2c0,0.3,0.3,0.8,0.7,1.6c0.5,0.8,0.8,1.3,1.1,1.3c0.2,0,0.5-0.4,1-1.2
		c0.4-0.8,0.7-1.3,0.7-1.6c0.1-0.6,0.1-1.3,0.1-2.2c0-0.2,0-0.6-0.1-1.1S47,39.7,47,39.5c0-0.3,0.1-0.4,0.3-0.4s0.5,0,0.9,0
		s0.7,0,0.9,0s0.5,0,0.9-0.1c0.4,0,0.7-0.1,0.9-0.1s0.4,0.1,0.4,0.3C51.8,39.7,51.9,40.7,51.9,42.2z"/>
</g>
</svg>
