<?xml version="1.0" encoding="utf-8"?>
<!-- Generator: Adobe Illustrator 19.2.0, SVG Export Plug-In . SVG Version: 6.00 Build 0)  -->
<svg version="1.1" id="Layer_1" xmlns="http://www.w3.org/2000/svg" xmlns:xlink="http://www.w3.org/1999/xlink" x="0px" y="0px"
	 viewBox="0 0 90.8 106.1" style="enable-background:new 0 0 90.8 106.1;" xml:space="preserve">
<style type="text/css">
	.st0{fill:#FFFFFF;}
	.st1{fill:#29ADE4;}
	.st2{font-family:'Helvetica-Bold';}
	.st3{font-size:71.0822px;}
</style>
<g>
	<path class="st0" d="M45.4,88.7C21.5,88.7,2,69.3,2,45.3S21.4,1.9,45.4,1.9c23.9,0,43.4,19.4,43.4,43.4S69.3,88.7,45.4,88.7z"/>
	<path class="st1" d="M45.4,4c22.8,0,41.4,18.6,41.4,41.4S68.2,86.8,45.4,86.8S4,68.2,4,45.4S22.6,4,45.4,4 M45.4,0
		C20.4,0,0,20.3,0,45.4s20.3,45.4,45.4,45.4s45.4-20.3,45.4-45.4S70.4,0,45.4,0L45.4,0z"/>
</g>
<text transform="matrix(1 0 0 1 23.6901 71.9035)" class="st1 st2 st3">?</text>
</svg>
