<svg id="Layer_1" data-name="Layer 1" xmlns="http://www.w3.org/2000/svg" xmlns:xlink="http://www.w3.org/1999/xlink" viewBox="0 0 90.8 90.8"><defs><style>.cls-1{fill:#fff;}.cls-2{fill:#29ade4;}.cls-3,.cls-4{fill:#2babe2;}.cls-4{stroke-miterlimit:10;stroke-width:3px;stroke:url(#linear-gradient);}</style><linearGradient id="linear-gradient" x1="39.47" y1="58.6" x2="51.34" y2="58.6" gradientTransform="matrix(1, 0, 0, -1, 0, 91)" gradientUnits="userSpaceOnUse"><stop offset="1" stop-color="#fff"/><stop offset="1"/></linearGradient></defs><title>ResetData</title><path class="cls-1" d="M45.4,88.7A43.4,43.4,0,1,1,88.8,45.3,43.42,43.42,0,0,1,45.4,88.7Z" transform="translate(0 0)"/><path class="cls-2" d="M45.4,4A41.4,41.4,0,1,1,4,45.4,41.48,41.48,0,0,1,45.4,4m0-4A45.4,45.4,0,1,0,90.8,45.4,45.43,45.43,0,0,0,45.4,0Z" transform="translate(0 0)"/><polygon class="cls-3" points="45.5 68.7 45.4 68.7 45.2 68.7 45.1 68.7 45 68.7 44.8 68.7 44.7 68.6 44.6 68.6 44.4 68.6 44.3 68.6 44.2 68.6 44 68.6 43.9 68.6 43.8 68.6 43.6 68.6 43.5 68.6 43.4 68.6 43.2 68.5 43.1 68.5 43 68.5 42.8 68.5 42.7 68.5 42.6 68.5 42.4 68.4 42.3 68.4 42.2 68.4 42 68.4 41.9 68.3 41.8 68.3 41.6 68.3 41.5 68.3 41.4 68.3 41.3 68.2 41.1 68.2 41 68.2 40.9 68.1 40.7 68.1 40.6 68.1 40.5 68 40.3 68 40.2 68 40.1 67.9 40 67.9 39.8 67.9 39.7 67.8 39.6 67.8 39.4 67.8 39.3 67.7 39.2 67.7 39.1 67.6 38.9 67.6 38.8 67.6 38.7 67.5 38.5 67.5 38.4 67.4 38.3 67.4 38.2 67.3 38 67.3 37.9 67.2 37.8 67.2 37.7 67.1 37.5 67.1 37.4 67 37.3 67 37.2 66.9 37.1 66.9 36.9 66.8 36.8 66.8 36.7 66.7 36.6 66.7 36.4 66.6 36.3 66.6 36.2 66.5 36.1 66.4 36 66.4 35.8 66.3 35.7 66.3 35.6 66.2 35.5 66.1 35.4 66.1 35.3 66 35.1 65.9 35 65.9 34.9 65.8 34.8 65.7 34.7 65.7 34.6 65.6 34.4 65.5 34.3 65.5 34.2 65.4 34.1 65.3 34 65.2 33.9 65.2 33.8 65.1 33.7 65 33.5 64.9 33.4 64.9 33.3 64.8 33.2 64.7 33.1 64.6 33 64.6 32.9 64.5 32.8 64.4 32.7 64.3 32.6 64.2 32.5 64.2 32.4 64.1 32.3 64 32.2 63.9 32.1 63.8 31.9 63.7 31.8 63.7 31.7 63.6 31.6 63.5 31.5 63.4 31.4 63.3 31.3 63.2 31.2 63.1 31.1 63 31 62.9 30.9 62.9 30.9 62.8 30.8 62.7 30.7 62.6 30.6 62.5 30.5 62.4 30.4 62.3 30.3 62.2 30.2 62.1 30.1 62 30 61.9 29.9 61.8 29.8 61.7 29.7 61.6 29.6 61.5 29.6 61.4 29.5 61.3 29.4 61.2 29.3 61.1 29.2 61 29.1 60.9 29 60.8 29 60.7 28.9 60.6 28.8 60.5 28.7 60.4 28.6 60.3 28.5 60.2 28.5 60.1 28.4 59.9 28.3 59.8 28.2 59.7 28.2 59.6 28.1 59.5 28 59.4 27.9 59.3 27.9 59.2 27.8 59.1 27.7 59 27.6 58.8 27.6 58.7 27.5 58.6 27.4 58.5 27.3 58.4 27.3 58.3 27.2 58.2 27.1 58 27.1 57.9 27 57.8 26.9 57.7 26.9 57.6 26.8 57.5 26.8 57.3 26.7 57.2 26.6 57.1 26.6 57 26.5 56.9 26.5 56.7 26.4 56.6 26.3 56.5 26.3 56.4 26.2 56.3 26.2 56.1 26.1 56 26.1 55.9 26 55.8 26 55.7 25.9 55.5 25.9 55.4 25.8 55.3 25.8 55.2 25.7 55 25.7 54.9 25.6 54.8 25.6 54.7 25.5 54.5 25.5 54.4 25.4 54.3 25.4 54.2 25.3 54 25.3 53.9 25.3 53.8 25.2 53.6 25.2 53.5 25.1 53.4 25.1 53.3 25.1 53.1 25 53 25 52.9 25 52.7 24.9 52.6 24.9 52.5 24.9 52.4 24.8 52.2 24.8 52.1 24.8 52 24.8 51.8 24.7 51.7 24.7 51.6 24.7 51.4 24.6 51.3 24.6 51.2 24.6 51 24.6 50.9 24.6 50.8 24.5 50.6 24.5 50.5 24.5 50.4 24.5 50.3 24.5 50.1 24.4 50 24.4 49.9 24.4 49.7 24.4 49.6 24.4 49.5 24.4 49.3 24.4 49.2 24.3 49.1 24.3 48.9 24.3 48.8 24.3 48.7 24.3 48.5 24.3 48.4 24.3 48.3 24.3 48.1 24.3 48 24.3 47.9 24.3 47.7 24.3 47.6 24.3 47.5 24.3 47.3 24.3 47.2 24.3 47 24.3 46.9 24.3 46.8 24.3 46.6 24.3 46.5 24.3 46.4 24.3 46.2 24.3 46.1 24.3 46 24.3 45.8 24.3 45.7 24.4 45.6 24.4 45.4 24.4 45.3 24.4 45.2 24.4 45 24.4 44.9 24.4 44.8 24.5 44.6 24.5 44.5 24.5 44.4 24.5 44.3 24.5 44.1 24.6 44 24.6 43.9 24.6 43.7 24.6 43.6 24.6 43.5 24.7 43.3 24.7 43.2 24.7 43.1 24.8 42.9 24.8 42.8 24.8 42.7 24.8 42.5 24.9 42.4 24.9 42.3 24.9 42.2 25 42 25 41.9 25 41.8 25.1 41.6 25.1 41.5 25.1 41.4 25.2 41.3 25.2 41.1 25.3 41 25.3 40.9 25.3 40.7 25.4 40.6 25.4 40.5 25.5 40.4 25.5 40.2 25.6 40.1 25.6 40 25.7 39.9 25.7 39.7 25.8 39.6 25.8 39.5 25.9 39.4 25.9 39.2 26 39.1 26 39 26.1 38.9 26.1 38.7 26.2 38.6 26.2 38.5 26.3 38.4 26.3 38.3 26.4 38.1 26.5 38 26.5 37.9 26.6 37.8 26.6 37.7 26.7 37.5 26.8 37.4 26.8 37.3 26.9 37.2 26.9 37.1 27 37 27.1 36.8 27.1 36.7 27.2 36.6 27.3 36.5 27.3 36.4 27.4 36.3 27.5 36.1 27.6 36 27.6 35.9 27.7 35.8 27.8 35.7 27.9 35.6 27.9 35.5 28 35.4 28.1 35.3 28.2 35.1 28.2 35 28.3 34.9 28.4 34.8 28.5 34.7 28.5 34.6 28.6 34.5 28.7 34.4 28.8 34.3 28.9 34.2 29 34.1 29 34 29.1 33.9 29.2 33.8 29.3 33.7 29.4 33.6 29.5 33.5 29.6 33.4 29.6 33.3 29.7 33.2 29.8 33.1 29.9 33 30 32.9 30.1 32.8 30.2 32.7 30.3 32.6 30.4 32.5 30.5 32.4 30.6 32.3 30.7 32.2 30.8 32.1 30.9 32 30.9 31.9 31 31.8 31.1 31.7 31.2 31.6 31.3 31.6 31.4 31.5 31.5 31.4 31.6 31.3 31.7 31.2 31.8 31.1 31.9 31 32.1 30.9 32.2 30.9 32.3 30.8 32.4 30.7 32.5 30.6 32.6 30.5 32.7 30.4 32.8 30.4 32.9 30.3 33 30.2 33.1 30.1 33.2 30 33.3 30 33.4 29.9 33.5 29.8 33.7 29.7 33.8 29.7 33.9 29.6 34 29.5 34.1 29.4 34.2 29.4 34.3 29.3 34.4 29.2 34.6 29.2 34.7 29.1 34.8 29 34.9 29 35 28.9 35.1 28.8 35.3 28.8 35.4 28.7 35.5 28.6 35.6 28.6 35.7 28.5 35.8 28.5 36 28.4 36.1 28.3 36.2 28.3 36.3 28.2 36.4 28.2 36.6 28.1 36.7 28 36.8 28 36.9 27.9 37.1 27.9 37.2 27.8 37.3 27.8 37.4 27.7 37.5 27.7 37.7 27.6 37.8 27.6 37.9 27.5 38 27.5 38.2 27.4 38.3 27.4 38.4 27.3 38.5 27.3 38.7 27.2 38.8 27.2 38.9 27.2 39.1 27.1 39.2 27.1 39.3 27 39.4 27 39.6 27 39.7 26.9 39.8 26.9 40 26.9 40.1 26.8 40.2 26.8 40.3 26.8 40.5 26.7 40.6 26.7 40.7 26.7 40.9 26.6 41 26.6 41.1 26.6 41.3 26.5 41.4 26.5 41.5 26.5 41.6 26.5 41.8 26.4 41.9 26.4 42 26.4 42.2 26.4 42.3 26.4 42.4 26.3 42.6 26.3 42.7 26.3 42.8 26.3 43 26.3 43.1 26.2 43.2 26.2 43.4 26.2 43.5 26.2 43.6 26.2 43.8 26.2 43.9 26.2 44 26.2 44.2 26.1 44.3 26.1 44.4 26.1 44.6 26.1 44.7 26.1 44.8 26.1 45 26.1 45.1 26.1 45.2 26.1 45.4 26.1 45.5 26.1 45.6 26.1 45.8 26.1 45.9 26.1 46 26.1 46.2 26.1 46.3 26.1 46.4 26.1 46.6 26.1 46.7 26.1 46.8 26.1 47 26.1 47.1 26.2 47.2 26.2 47.4 26.2 47.5 26.2 47.6 26.2 47.8 26.2 47.9 26.2 48 26.2 48.2 26.3 48.3 26.3 48.4 26.3 48.6 26.3 48.7 26.3 48.8 26.4 49 26.4 49.1 26.4 49.2 26.4 49.4 26.4 49.5 26.5 49.6 26.5 49.8 26.5 49.9 26.5 50 26.6 50.1 26.6 50.3 26.6 50.4 26.7 50.5 26.7 50.7 26.7 50.8 26.8 50.9 26.8 51.1 26.8 51.2 26.9 51.3 26.9 51.4 26.9 51.6 27 51.7 27 51.8 27 52 27.1 52.1 27.1 52.2 27.2 52.3 27.2 52.5 27.2 52.6 27.3 52.7 27.3 52.8 27.4 53 27.4 53.1 27.5 53.2 27.5 53.3 27.6 53.5 27.6 53.6 27.7 53.7 27.7 53.8 27.8 54 27.8 54.1 27.9 54.2 27.9 54.3 28 54.4 28 54.6 28.1 54.7 28.2 54.8 28.2 54.9 28.3 55 28.3 55.2 28.4 55.3 28.5 55.4 28.5 55.5 28.6 55.6 28.6 55.8 28.7 55.9 28.8 56 28.8 56.1 28.9 56.2 29 56.3 29 56.5 29.1 56.6 29.2 56.7 29.2 56.8 29.3 56.9 29.4 57 29.4 57.1 29.5 57.3 29.6 57.4 29.7 57.5 29.7 57.6 29.8 57.7 29.9 57.8 30 57.9 30 58 30.1 58.1 30.2 58.2 30.3 58.3 30.4 58.5 30.4 58.6 30.5 58.7 30.6 58.8 30.7 58.9 30.8 59 30.9 59.1 30.9 59.2 31 59.3 31.1 59.4 31.2 59.5 31.3 59.6 31.4 59.7 31.5 59.8 31.6 59.9 31.6 60 31.7 60.1 31.8 60.2 31.9 60.3 32 60.4 32.1 60.5 32.2 60.6 32.3 60.7 32.4 60.8 32.5 60.9 32.6 60.9 32.7 61 32.8 61.1 32.9 61.2 33 61.3 33.1 61.4 33.2 61.5 33.3 61.6 33.4 61.7 33.5 61.8 33.6 61.8 33.7 61.9 33.8 62 33.9 62.1 34 62.2 34.1 62.3 34.2 62.3 34.3 62.4 34.4 62.5 34.5 62.6 34.6 62.7 34.7 62.7 34.8 62.8 34.9 62.9 35 63 35.1 63.1 35.3 63.1 35.4 63.2 35.5 63.3 35.6 63.4 35.7 63.4 35.8 63.5 35.9 63.6 36 63.6 36.1 63.7 36.3 63.8 36.4 63.9 36.5 63.9 36.6 64 36.7 64.1 36.8 64.1 37 64.2 37.1 64.2 37.2 64.3 37.3 64.4 37.4 64.4 37.5 64.5 37.7 64.6 37.8 64.6 37.9 64.7 38 64.7 38.1 64.8 38.3 64.9 38.4 64.9 38.5 65 38.6 65 38.7 65.1 38.9 65.1 39 65.2 39.1 65.2 39.2 65.3 39.4 65.3 39.5 65.4 39.6 65.4 39.7 65.5 39.9 65.5 40 65.6 40.1 65.6 40.2 65.7 40.4 65.7 40.5 65.7 40.6 65.8 40.7 65.8 40.9 65.9 41 65.9 41.1 65.9 41.3 66 41.4 66 41.5 66.1 41.6 66.1 41.8 66.1 41.9 66.2 42 66.2 42.2 66.2 42.3 66.3 42.4 66.3 42.5 66.3 42.7 66.4 42.8 66.4 42.9 66.4 43.1 66.4 43.2 66.5 43.3 66.5 43.5 66.5 43.6 66.5 43.7 66.6 43.9 66.6 44 66.6 44.1 66.6 44.3 66.6 44.4 66.7 44.5 66.7 44.6 66.7 44.8 66.7 44.9 66.7 45 66.7 45.2 66.7 45.3 66.8 45.4 66.8 45.6 66.8 45.7 66.8 45.8 66.8 46 66.8 46.1 66.8 46.2 66.8 46.4 66.8 46.5 66.8 46.6 66.8 46.8 66.8 46.9 66.8 47 66.8 47.2 66.8 47.3 66.8 47.5 66.8 47.6 66.8 47.7 66.8 47.9 66.8 48 66.8 48.1 66.8 48.3 66.8 48.4 66.8 48.5 66.8 48.7 66.8 48.8 66.8 48.9 66.8 49.1 66.8 49.2 66.8 49.3 66.7 49.5 66.7 49.6 66.7 49.7 66.7 49.9 66.7 50 66.7 50.1 66.7 50.3 66.6 50.4 66.6 50.5 66.6 50.6 66.6 50.8 66.6 50.9 66.5 51 66.5 51.2 66.5 51.3 66.5 51.4 66.4 51.6 66.4 51.7 66.4 51.8 66.4 52 66.3 52.1 66.3 52.2 66.3 52.4 66.2 52.5 66.2 52.6 66.2 52.7 66.1 52.9 66.1 53 66.1 53.1 66 53.3 66 53.4 65.9 53.5 65.9 53.6 65.9 53.8 65.8 53.9 65.8 54 65.7 54.2 65.7 54.3 65.7 54.4 65.6 54.5 65.6 54.7 65.5 54.8 65.5 54.9 65.4 55 65.4 55.2 65.3 55.3 65.3 55.4 65.2 55.5 65.2 55.7 65.1 55.8 65.1 55.9 65 56 65 56.1 64.9 56.3 64.9 56.4 64.8 56.5 64.7 56.6 64.7 56.7 64.6 56.9 64.6 57 64.5 57.1 64.4 57.2 64.4 57.3 64.3 57.5 64.2 57.6 64.2 57.7 64.1 57.8 64.1 57.9 64 58 63.9 58.2 63.9 58.3 63.8 58.4 63.7 58.5 63.6 58.6 63.6 58.7 63.5 58.8 63.4 59 63.4 59.1 63.3 59.2 63.2 59.3 63.1 59.4 63.1 59.5 63 59.6 62.9 59.7 62.8 59.8 62.7 59.9 62.7 60.1 62.6 60.2 62.5 60.3 62.4 60.4 62.3 60.5 62.3 60.6 62.2 60.7 62.1 60.8 62 60.9 61.9 61 61.8 61.1 61.8 61.2 61.7 61.3 61.6 61.4 61.5 61.5 61.4 61.6 61.3 61.7 61.2 61.8 61.1 61.9 61 62 60.9 62.1 60.9 62.2 60.8 62.3 60.7 62.4 60.6 62.5 60.5 62.6 60.4 62.7 60.3 62.8 60.2 62.9 60.1 62.9 60 63 59.9 63.1 59.8 63.2 59.7 63.3 59.6 63.4 59.5 63.5 59.4 63.6 59.3 63.7 59.2 63.7 59.1 63.8 59 63.9 58.9 64 58.8 64.1 58.7 64.2 58.6 64.2 58.5 64.3 58.3 64.4 58.2 64.5 58.1 64.6 58 64.6 57.9 64.7 57.8 64.8 57.7 64.9 57.6 64.9 57.5 65 57.4 65.1 57.3 65.2 57.1 65.2 57 65.3 56.9 65.4 56.8 65.5 56.7 65.5 56.6 65.6 56.5 65.7 56.3 65.7 56.2 65.8 56.1 65.9 56 65.9 55.9 66 55.8 66.1 55.6 66.1 55.5 66.2 55.4 66.3 55.3 66.3 55.2 66.4 55 66.4 54.9 66.5 54.8 66.6 54.7 66.6 54.6 66.7 54.4 66.7 54.3 66.8 54.2 66.8 54.1 66.9 54 66.9 53.8 67 53.7 67 53.6 67.1 53.5 67.1 53.3 67.2 53.2 67.2 53.1 67.3 53 67.3 52.8 67.4 52.7 67.4 52.6 67.5 52.5 67.5 52.3 67.6 52.2 67.6 52.1 67.6 52 67.7 51.8 67.7 51.7 67.8 51.6 67.8 51.4 67.8 51.3 67.9 51.2 67.9 51.1 67.9 50.9 68 50.8 68 50.7 68 50.5 68.1 50.4 68.1 50.3 68.1 50.1 68.2 50 68.2 49.9 68.2 49.8 68.3 49.6 68.3 49.5 68.3 49.4 68.3 49.2 68.3 49.1 68.4 49 68.4 48.8 68.4 48.7 68.4 48.6 68.5 48.4 68.5 48.3 68.5 48.2 68.5 48 68.5 47.9 68.5 47.8 68.6 47.6 68.6 47.5 68.6 47.4 68.6 47.2 68.6 47.1 68.6 47 68.6 46.8 68.6 46.7 68.6 46.6 68.6 46.4 68.6 46.3 68.7 46.2 68.7 46 68.7 45.9 68.7 45.8 68.7 45.6 68.7 45.5 68.7"/><polygon class="cls-1" points="45.4 61.7 45.3 61.7 45.2 61.7 45.2 61.7 45.1 61.7 45 61.7 44.9 61.7 44.8 61.7 44.7 61.7 44.6 61.7 44.5 61.7 44.4 61.6 44.4 61.6 44.3 61.6 44.2 61.6 44.1 61.6 44 61.6 43.9 61.6 43.8 61.6 43.7 61.6 43.6 61.6 43.5 61.6 43.5 61.5 43.4 61.5 43.3 61.5 43.2 61.5 43.1 61.5 43 61.5 42.9 61.5 42.8 61.4 42.7 61.4 42.7 61.4 42.6 61.4 42.5 61.4 42.4 61.3 42.3 61.3 42.2 61.3 42.1 61.3 42 61.3 42 61.2 41.9 61.2 41.8 61.2 41.7 61.2 41.6 61.2 41.5 61.1 41.4 61.1 41.4 61.1 41.3 61.1 41.2 61 41.1 61 41 61 40.9 60.9 40.8 60.9 40.8 60.9 40.7 60.9 40.6 60.8 40.5 60.8 40.4 60.8 40.3 60.7 40.3 60.7 40.2 60.7 40.1 60.6 40 60.6 39.9 60.6 39.8 60.5 39.8 60.5 39.7 60.5 39.6 60.4 39.5 60.4 39.4 60.3 39.3 60.3 39.3 60.3 39.2 60.2 39.1 60.2 39 60.1 38.9 60.1 38.9 60.1 38.8 60 38.7 60 38.6 59.9 38.5 59.9 38.5 59.9 38.4 59.8 38.3 59.8 38.2 59.7 38.2 59.7 38.1 59.6 38 59.6 37.9 59.5 37.9 59.5 37.8 59.4 37.7 59.4 37.6 59.3 37.5 59.3 37.5 59.2 37.4 59.2 37.3 59.1 37.3 59.1 37.2 59 37.1 59 37 58.9 37 58.9 36.9 58.8 36.8 58.8 36.7 58.7 36.7 58.7 36.6 58.6 36.5 58.5 36.5 58.5 36.4 58.4 36.3 58.4 36.3 58.3 36.2 58.3 36.1 58.2 36.1 58.1 36 58.1 35.9 58 35.9 58 35.8 57.9 35.7 57.8 35.7 57.8 35.6 57.7 35.5 57.7 35.5 57.6 35.4 57.5 35.3 57.5 35.3 57.4 35.2 57.3 35.1 57.3 35.1 57.2 35 57.1 35 57.1 34.9 57 34.8 56.9 34.8 56.9 34.7 56.8 34.7 56.7 34.6 56.7 34.5 56.6 34.5 56.5 34.4 56.5 34.4 56.4 34.3 56.3 34.3 56.3 34.2 56.2 34.1 56.1 34.1 56 34 56 34 55.9 33.9 55.8 33.9 55.8 33.8 55.7 33.8 55.6 33.7 55.5 33.7 55.5 33.6 55.4 33.6 55.3 33.5 55.2 33.5 55.2 33.4 55.1 33.4 55 33.3 54.9 33.3 54.9 33.2 54.8 33.2 54.7 33.1 54.6 33.1 54.5 33.1 54.5 33 54.4 33 54.3 32.9 54.2 32.9 54.2 32.8 54.1 32.8 54 32.8 53.9 32.7 53.8 32.7 53.8 32.6 53.7 32.6 53.6 32.6 53.5 32.5 53.4 32.5 53.4 32.4 53.3 32.4 53.2 32.4 53.1 32.3 53 32.3 52.9 32.3 52.9 32.2 52.8 32.2 52.7 32.2 52.6 32.1 52.5 32.1 52.4 32.1 52.4 32 52.3 32 52.2 32 52.1 31.9 52 31.9 51.9 31.9 51.8 31.9 51.8 31.8 51.7 31.8 51.6 31.8 51.5 31.8 51.4 31.7 51.3 31.7 51.2 31.7 51.2 31.7 51.1 31.6 51 31.6 50.9 31.6 50.8 31.6 50.7 31.6 50.6 31.5 50.6 31.5 50.5 31.5 50.4 31.5 50.3 31.5 50.2 31.4 50.1 31.4 50 31.4 49.9 31.4 49.8 31.4 49.8 31.4 49.7 31.3 49.6 31.3 49.5 31.3 49.4 31.3 49.3 31.3 49.2 31.3 49.1 31.3 49 31.3 49 31.3 48.9 31.2 48.8 31.2 48.7 31.2 48.6 31.2 48.5 31.2 48.4 31.2 48.3 31.2 48.2 31.2 48.2 31.2 48.1 31.2 48 31.2 47.9 31.2 47.8 31.2 47.7 31.2 47.6 31.2 47.5 31.2 47.4 31.2 47.3 31.2 47.3 31.2 47.2 31.2 47.1 31.2 47 31.2 46.9 31.2 46.8 31.2 46.7 31.2 46.6 31.2 46.5 31.2 46.4 31.2 46.4 31.2 46.3 31.2 46.2 31.2 46.1 31.2 46 31.3 45.9 31.3 45.8 31.3 45.7 31.3 45.6 31.3 45.6 31.3 45.5 31.3 45.4 31.3 45.3 31.3 45.2 31.4 45.1 31.4 45 31.4 44.9 31.4 44.8 31.4 44.8 31.4 44.7 31.5 44.6 31.5 44.5 31.5 44.4 31.5 44.3 31.5 44.2 31.6 44.1 31.6 44.1 31.6 44 31.6 43.9 31.6 43.8 31.7 43.7 31.7 43.6 31.7 43.5 31.7 43.4 31.8 43.4 31.8 43.3 31.8 43.2 31.8 43.1 31.9 43 31.9 42.9 31.9 42.8 31.9 42.8 32 42.7 32 42.6 32 42.5 32.1 42.4 32.1 42.3 32.1 42.3 32.2 42.2 32.2 42.1 32.2 42 32.3 41.9 32.3 41.8 32.3 41.8 32.4 41.7 32.4 41.6 32.4 41.5 32.5 41.4 32.5 41.3 32.6 41.3 32.6 41.2 32.6 41.1 32.7 41 32.7 40.9 32.8 40.9 32.8 40.8 32.8 40.7 32.9 40.6 32.9 40.5 33 40.5 33 40.4 33.1 40.3 33.1 40.2 33.1 40.2 33.2 40.1 33.2 40 33.3 39.9 33.3 39.8 33.4 39.8 33.4 39.7 33.5 39.6 33.5 39.5 33.6 39.5 33.6 39.4 33.7 39.3 33.7 39.2 33.8 39.2 33.8 39.1 33.9 39 33.9 38.9 34 38.9 34 38.8 34.1 38.7 34.1 38.7 34.2 38.6 34.3 38.5 34.3 38.5 34.4 38.4 34.4 38.3 34.5 38.2 34.5 38.2 34.6 38.1 34.7 38 34.7 38 34.8 37.9 34.8 37.8 34.9 37.8 35 37.7 35 37.6 35.1 37.6 35.1 37.5 35.2 37.4 35.3 37.4 35.3 37.3 35.4 37.2 35.5 37.2 35.5 37.1 35.6 37.1 35.7 37 35.7 36.9 35.8 36.9 35.9 36.8 35.9 36.8 36 36.7 36.1 36.6 36.1 36.6 36.2 36.5 36.3 36.5 36.3 36.4 36.4 36.3 36.5 36.3 36.5 36.2 36.6 36.2 36.7 36.1 36.7 36.1 36.8 36 36.9 36 37 35.9 37 35.8 37.1 35.8 37.2 35.7 37.3 35.7 37.3 35.6 37.4 35.6 37.5 35.5 37.5 35.5 37.6 35.4 37.7 35.4 37.8 35.3 37.9 35.3 37.9 35.2 38 35.2 38.1 35.2 38.2 35.1 38.2 35.1 38.3 35 38.4 35 38.5 34.9 38.5 34.9 38.6 34.8 38.7 34.8 38.8 34.8 38.9 34.7 38.9 34.7 39 34.6 39.1 34.6 39.2 34.6 39.3 34.5 39.3 34.5 39.4 34.4 39.5 34.4 39.6 34.4 39.7 34.3 39.8 34.3 39.8 34.3 39.9 34.2 40 34.2 40.1 34.1 40.2 34.1 40.3 34.1 40.3 34 40.4 34 40.5 34 40.6 34 40.7 33.9 40.8 33.9 40.8 33.9 40.9 33.8 41 33.8 41.1 33.8 41.2 33.8 41.3 33.7 41.4 33.7 41.4 33.7 41.5 33.6 41.6 33.6 41.7 33.6 41.8 33.6 41.9 33.6 42 33.5 42 33.5 42.1 33.5 42.2 33.5 42.3 33.4 42.4 33.4 42.5 33.4 42.6 33.4 42.7 33.4 42.7 33.4 42.8 33.3 42.9 33.3 43 33.3 43.1 33.3 43.2 33.3 43.3 33.3 43.4 33.2 43.5 33.2 43.5 33.2 43.6 33.2 43.7 33.2 43.8 33.2 43.9 33.2 44 33.2 44.1 33.2 44.2 33.2 44.3 33.1 44.4 33.1 44.4 33.1 44.5 33.1 44.6 33.1 44.7 33.1 44.8 33.1 44.9 33.1 45 33.1 45.1 33.1 45.2 33.1 45.2 33.1 45.3 33.1 45.4 33.1 45.5 33.1 45.6 33.1 45.7 33.1 45.8 33.1 45.9 33.1 46 33.1 46.1 33.1 46.1 33.1 46.2 33.1 46.3 33.1 46.4 33.1 46.5 33.1 46.6 33.1 46.7 33.1 46.8 33.2 46.9 33.2 47 33.2 47 33.2 47.1 33.2 47.2 33.2 47.3 33.2 47.4 33.2 47.5 33.2 47.6 33.2 47.7 33.3 47.8 33.3 47.8 33.3 47.9 33.3 48 33.3 48.1 33.3 48.2 33.4 48.3 33.4 48.4 33.4 48.5 33.4 48.5 33.4 48.6 33.4 48.7 33.5 48.8 33.5 48.9 33.5 49 33.5 49.1 33.6 49.2 33.6 49.2 33.6 49.3 33.6 49.4 33.6 49.5 33.7 49.6 33.7 49.7 33.7 49.8 33.8 49.8 33.8 49.9 33.8 50 33.8 50.1 33.9 50.2 33.9 50.3 33.9 50.4 34 50.4 34 50.5 34 50.6 34 50.7 34.1 50.8 34.1 50.9 34.1 50.9 34.2 51 34.2 51.1 34.3 51.2 34.3 51.3 34.3 51.4 34.4 51.4 34.4 51.5 34.4 51.6 34.5 51.7 34.5 51.8 34.6 51.8 34.6 51.9 34.6 52 34.7 52.1 34.7 52.2 34.8 52.2 34.8 52.3 34.8 52.4 34.9 52.5 34.9 52.6 35 52.6 35 52.7 35.1 52.8 35.1 52.9 35.2 52.9 35.2 53 35.2 53.1 35.3 53.2 35.3 53.2 35.4 53.3 35.4 53.4 35.5 53.5 35.5 53.5 35.6 53.6 35.6 53.7 35.7 53.8 35.7 53.8 35.8 53.9 35.8 54 35.9 54.1 36 54.1 36 54.2 36.1 54.3 36.1 54.3 36.2 54.4 36.2 54.5 36.3 54.6 36.3 54.6 36.4 54.7 36.5 54.8 36.5 54.8 36.6 54.9 36.6 55 36.7 55 36.8 55.1 36.8 55.2 36.9 55.2 36.9 55.3 37 55.4 37.1 55.4 37.1 55.5 37.2 55.5 37.2 55.6 37.3 55.7 37.4 55.7 37.4 55.8 37.5 55.9 37.6 55.9 37.6 56 37.7 56 37.8 56.1 37.8 56.2 37.9 56.2 38 56.3 38 56.3 38.1 56.4 38.2 56.5 38.2 56.5 38.3 56.6 38.4 56.6 38.5 56.7 38.5 56.7 38.6 56.8 38.7 56.9 38.7 56.9 38.8 57 38.9 57 38.9 57.1 39 57.1 39.1 57.2 39.2 57.2 39.2 57.3 39.3 57.3 39.4 57.4 39.5 57.4 39.5 57.5 39.6 57.5 39.7 57.6 39.8 57.6 39.8 57.7 39.9 57.7 40 57.8 40.1 57.8 40.2 57.8 40.2 57.9 40.3 57.9 40.4 58 40.5 58 40.5 58.1 40.6 58.1 40.7 58.1 40.8 58.2 40.9 58.2 40.9 58.3 41 58.3 41.1 58.3 41.2 58.4 41.3 58.4 41.3 58.5 41.4 58.5 41.5 58.5 41.6 58.6 41.7 58.6 41.8 58.6 41.8 58.7 41.9 58.7 42 58.7 42.1 58.8 42.2 58.8 42.3 58.8 42.3 58.9 42.4 58.9 42.5 58.9 42.6 59 42.7 59 42.8 59 42.8 59.1 42.9 59.1 43 59.1 43.1 59.1 43.2 59.2 43.3 59.2 43.4 59.2 43.4 59.2 43.5 59.3 43.6 59.3 43.7 59.3 43.8 59.3 43.9 59.4 44 59.4 44.1 59.4 44.1 59.4 44.2 59.4 44.3 59.5 44.4 59.5 44.5 59.5 44.6 59.5 44.7 59.5 44.8 59.5 44.8 59.6 44.9 59.6 45 59.6 45.1 59.6 45.2 59.6 45.3 59.6 45.4 59.6 45.5 59.6 45.6 59.7 45.6 59.7 45.7 59.7 45.8 59.7 45.9 59.7 46 59.7 46.1 59.7 46.2 59.7 46.3 59.7 46.4 59.7 46.4 59.7 46.5 59.7 46.6 59.8 46.7 59.8 46.8 59.8 46.9 59.8 47 59.8 47.1 59.8 47.2 59.8 47.3 59.8 47.3 59.8 47.4 59.8 47.5 59.8 47.6 59.8 47.7 59.8 47.8 59.8 47.9 59.8 48 59.8 48.1 59.7 48.2 59.7 48.2 59.7 48.3 59.7 48.4 59.7 48.5 59.7 48.6 59.7 48.7 59.7 48.8 59.7 48.9 59.7 49 59.7 49 59.7 49.1 59.6 49.2 59.6 49.3 59.6 49.4 59.6 49.5 59.6 49.6 59.6 49.7 59.6 49.8 59.6 49.8 59.5 49.9 59.5 50 59.5 50.1 59.5 50.2 59.5 50.3 59.5 50.4 59.4 50.5 59.4 50.6 59.4 50.6 59.4 50.7 59.4 50.8 59.3 50.9 59.3 51 59.3 51.1 59.3 51.2 59.2 51.2 59.2 51.3 59.2 51.4 59.2 51.5 59.1 51.6 59.1 51.7 59.1 51.8 59.1 51.8 59 51.9 59 52 59 52.1 58.9 52.2 58.9 52.3 58.9 52.4 58.8 52.4 58.8 52.5 58.8 52.6 58.7 52.7 58.7 52.8 58.7 52.9 58.6 52.9 58.6 53 58.6 53.1 58.5 53.2 58.5 53.3 58.5 53.4 58.4 53.4 58.4 53.5 58.3 53.6 58.3 53.7 58.3 53.8 58.2 53.8 58.2 53.9 58.1 54 58.1 54.1 58.1 54.2 58 54.2 58 54.3 57.9 54.4 57.9 54.5 57.8 54.5 57.8 54.6 57.8 54.7 57.7 54.8 57.7 54.9 57.6 54.9 57.6 55 57.5 55.1 57.5 55.2 57.4 55.2 57.4 55.3 57.3 55.4 57.3 55.5 57.2 55.5 57.2 55.6 57.1 55.7 57.1 55.8 57 55.8 57 55.9 56.9 56 56.9 56 56.8 56.1 56.7 56.2 56.7 56.3 56.6 56.3 56.6 56.4 56.5 56.5 56.5 56.5 56.4 56.6 56.3 56.7 56.3 56.7 56.2 56.8 56.2 56.9 56.1 56.9 56 57 56 57.1 55.9 57.1 55.9 57.2 55.8 57.3 55.7 57.3 55.7 57.4 55.6 57.5 55.5 57.5 55.5 57.6 55.4 57.7 55.4 57.7 55.3 57.8 55.2 57.8 55.2 57.9 55.1 58 55 58 55 58.1 54.9 58.1 54.8 58.2 54.8 58.3 54.7 58.3 54.6 58.4 54.6 58.4 54.5 58.5 54.4 58.5 54.3 58.6 54.3 58.7 54.2 58.7 54.1 58.8 54.1 58.8 54 58.9 53.9 58.9 53.8 59 53.8 59 53.7 59.1 53.6 59.1 53.5 59.2 53.5 59.2 53.4 59.3 53.3 59.3 53.2 59.4 53.2 59.4 53.1 59.5 53 59.5 52.9 59.6 52.9 59.6 52.8 59.7 52.7 59.7 52.6 59.8 52.6 59.8 52.5 59.9 52.4 59.9 52.3 59.9 52.2 60 52.2 60 52.1 60.1 52 60.1 51.9 60.1 51.8 60.2 51.8 60.2 51.7 60.3 51.6 60.3 51.5 60.3 51.4 60.4 51.4 60.4 51.3 60.5 51.2 60.5 51.1 60.5 51 60.6 50.9 60.6 50.9 60.6 50.8 60.7 50.7 60.7 50.6 60.7 50.5 60.8 50.4 60.8 50.4 60.8 50.3 60.9 50.2 60.9 50.1 60.9 50 60.9 49.9 61 49.8 61 49.8 61 49.7 61.1 49.6 61.1 49.5 61.1 49.4 61.1 49.3 61.2 49.2 61.2 49.2 61.2 49.1 61.2 49 61.2 48.9 61.3 48.8 61.3 48.7 61.3 48.6 61.3 48.5 61.3 48.5 61.4 48.4 61.4 48.3 61.4 48.2 61.4 48.1 61.4 48 61.5 47.9 61.5 47.8 61.5 47.8 61.5 47.7 61.5 47.6 61.5 47.5 61.5 47.4 61.6 47.3 61.6 47.2 61.6 47.1 61.6 47 61.6 47 61.6 46.9 61.6 46.8 61.6 46.7 61.6 46.6 61.6 46.5 61.6 46.4 61.7 46.3 61.7 46.2 61.7 46.1 61.7 46.1 61.7 46 61.7 45.9 61.7 45.8 61.7 45.7 61.7 45.6 61.7 45.5 61.7 45.4 61.7"/><rect class="cls-4" x="41" y="21" width="8.9" height="22.8"/></svg>