<?xml version="1.0" encoding="utf-8"?>
<!-- Generator: Adobe Illustrator 19.2.0, SVG Export Plug-In . SVG Version: 6.00 Build 0)  -->
<svg version="1.1" id="Layer_1" xmlns="http://www.w3.org/2000/svg" xmlns:xlink="http://www.w3.org/1999/xlink" x="0px" y="0px"
	 viewBox="0 0 90.8 90.8" style="enable-background:new 0 0 90.8 90.8;" xml:space="preserve">
<style type="text/css">
	.st0{fill:#FFFFFF;}
	.st1{fill:#29ADE4;}
</style>
<g>
	<path class="st0" d="M45.4,88.7C21.5,88.7,2,69.3,2,45.3S21.4,1.9,45.4,1.9c23.9,0,43.4,19.4,43.4,43.4S69.3,88.7,45.4,88.7z"/>
	<path class="st1" d="M45.4,4c22.8,0,41.4,18.6,41.4,41.4S68.2,86.7,45.4,86.7S4,68.1,4,45.3S22.6,4,45.4,4 M45.4,0
		C20.4,0,0,20.3,0,45.4s20.3,45.4,45.4,45.4s45.4-20.3,45.4-45.4S70.4,0,45.4,0L45.4,0z"/>
</g>
<g>
	<path class="st1" d="M27,26.9c9.1-9.1,23.3-10.2,33.6-3.2l5-5l5.9,21.6l-21.6-5.9l4.6-4.6C47.6,26,38.7,27,32.9,32.9
		c-7.1,7.1-7.1,18.6,0,25.7c7.1,7.1,18.6,7.1,25.7,0c1.9-1.9,3.3-4.1,4.2-6.7l7.9,2.8c-1.3,3.7-3.4,6.9-6.2,9.7
		c-10.3,10.3-27.1,10.3-37.5,0C16.7,54,16.7,37.2,27,26.9L27,26.9z"/>
</g>
</svg>
