<?xml version="1.0" encoding="utf-8"?>
<!-- Generator: Adobe Illustrator 19.2.0, SVG Export Plug-In . SVG Version: 6.00 Build 0)  -->
<svg version="1.1" id="Layer_1" xmlns="http://www.w3.org/2000/svg" xmlns:xlink="http://www.w3.org/1999/xlink" x="0px" y="0px"
	 viewBox="0 0 90.8 90.8" style="enable-background:new 0 0 90.8 90.8;" xml:space="preserve">
<style type="text/css">
	.st0{fill:#FFFFFF;}
	.st1{fill:#29ADE4;}
</style>
<g>
	<path class="st0" d="M45.4,88.7C21.5,88.7,2,69.3,2,45.3S21.4,1.9,45.4,1.9c23.9,0,43.4,19.4,43.4,43.4S69.3,88.7,45.4,88.7z"/>
	<path class="st1" d="M45.4,4c22.8,0,41.4,18.6,41.4,41.4S68.2,86.7,45.4,86.7S4,68.1,4,45.3S22.6,4,45.4,4 M45.4,0
		C20.4,0,0,20.3,0,45.4s20.3,45.4,45.4,45.4s45.4-20.3,45.4-45.4S70.4,0,45.4,0L45.4,0z"/>
</g>
<g>
	<path class="st1" d="M71.3,31.9l6-3.7l0.8,22.4L58.4,39.8l5.5-3.4"/>
</g>
<g>
	<g>
		<g>
			<path class="st1" d="M64.9,35.9c-0.1-0.2-0.2-0.4-0.3-0.7c-0.2-0.3-0.4-0.7-0.7-1.2c-0.3-0.5-0.6-1-1.1-1.6
				c-0.4-0.6-0.9-1.2-1.5-1.9c-2.3-2.6-6.4-5.6-11.9-6.6c-2.7-0.5-5.8-0.6-8.9,0.1c-3.1,0.7-6.2,2.1-8.9,4.2c-2.7,2.2-5,5-6.5,8.3
				c-1.5,3.3-2.2,7.1-2,10.8c0.2,3.7,1.4,7.4,3.3,10.5c1.9,3.2,4.6,5.8,7.6,7.7c3,1.9,6.4,3.1,9.6,3.5c3.3,0.4,6.5,0.2,9.3-0.6
				c2.8-0.7,5.3-1.9,7.4-3.2c2-1.3,3.7-2.7,4.9-4c2.5-2.5,3.6-4.4,3.9-4.2c0.2,0.1-0.3,2.2-2.4,5.4c-1.1,1.6-2.6,3.3-4.7,5
				c-2.1,1.7-4.8,3.3-7.9,4.4c-3.2,1.1-6.9,1.7-10.8,1.5c-3.9-0.2-8.1-1.3-11.9-3.4c-3.8-2.1-7.4-5.1-10-9
				c-2.6-3.9-4.4-8.4-4.9-13.2c-0.5-4.8,0.2-9.7,1.9-14.2c1.8-4.5,4.7-8.4,8.2-11.5c3.6-3,7.7-5.1,12-6.3c4.2-1.1,8.5-1.2,12.4-0.6
				c3.9,0.6,7.3,1.9,10.2,3.5c2.9,1.6,5.2,3.5,6.9,5.3c0.9,0.9,1.7,1.8,2.3,2.6c0.6,0.8,1.2,1.5,1.6,2.2c0.4,0.7,0.8,1.2,1,1.7
				c0.2,0.5,0.4,0.8,0.5,1c1.7,3.5,2.1,7.2,1.5,9.7c-0.1,0.6-0.3,1.2-0.5,1.7c-0.2,0.5-0.5,0.9-0.7,1.2c-0.5,0.7-1.1,1-1.8,1
				S70.6,45,70,44.4c-0.3-0.3-0.6-0.6-0.9-1l-0.8-1.2c-0.3-0.4-0.6-0.9-0.8-1.4c-0.3-0.5-0.6-1-0.8-1.5c-0.2-0.6-0.6-1.1-0.9-1.7
				C65.6,37,65.2,36.5,64.9,35.9z"/>
		</g>
	</g>
</g>
</svg>
