<?xml version="1.0" encoding="utf-8"?>
<!-- Generator: Adobe Illustrator 19.2.0, SVG Export Plug-In . SVG Version: 6.00 Build 0)  -->
<svg version="1.1" id="Layer_1" xmlns="http://www.w3.org/2000/svg" xmlns:xlink="http://www.w3.org/1999/xlink" x="0px" y="0px"
	 viewBox="0 0 263.9 263.3" style="enable-background:new 0 0 263.9 263.3;" xml:space="preserve">
<style type="text/css">
	.st0{fill:#29ADE4;}
	.st1{fill:#FFFFFF;}
</style>
<g>
	<path class="st0" d="M241.3,0H23.2C11.1,0,0,9.4,0,22v192c0,10,7,18.5,15.8,21.4c2.1,0.6,4.4,1.2,6.5,1.2h6.5V248
		c0,7,5.9,15.2,13.2,15.2h17.6c7,0,13.2-8.2,13.2-15.2v-11.4h117.9V248c0,7,6.5,15.2,13.8,15.2h17.6c7,0,12.6-8.2,12.6-15.2v-11.4h7
		c2.1,0,4.4-0.6,6.5-1.2c9.4-2.6,15.8-11.4,15.8-21.4V22C263.9,10,253.9,0,241.3,0L241.3,0z"/>
</g>
<path class="st1" d="M212.8,202.3H49.2c-7.8,0-14.2-6.4-14.2-14.2V44.5c0-7.8,6.4-14.2,14.2-14.2h163.7c7.8,0,14.2,6.4,14.2,14.2
	v143.7C227,195.9,220.6,202.3,212.8,202.3z"/>
</svg>
