<?xml version="1.0" encoding="utf-8"?>
<!-- Generator: Adobe Illustrator 19.2.0, SVG Export Plug-In . SVG Version: 6.00 Build 0)  -->
<svg version="1.1" id="Layer_1" xmlns="http://www.w3.org/2000/svg" xmlns:xlink="http://www.w3.org/1999/xlink" x="0px" y="0px"
	 viewBox="0 0 99.9 81.4" style="enable-background:new 0 0 99.9 81.4;" xml:space="preserve">
<style type="text/css">
	.st0{fill:#27AAE1;stroke:#FFFFFF;stroke-width:2;stroke-miterlimit:10;}
	.st1{fill:#27AAE1;stroke:#FFFFFF;stroke-miterlimit:10;}
</style>
<path class="st0" d="M96.2,1H3.7C2.2,1,1,2.2,1,3.7v60.7v9v7h26.4V76h45v4.3h26.4v-7v-9V3.7C98.9,2.2,97.7,1,96.2,1z"/>
<path class="st1" d="M87,66H12.8c-1.8,0-3.3-1.5-3.3-3.3v-49c0-1.8,1.5-3.3,3.3-3.3H87c1.8,0,3.3,1.5,3.3,3.3v49
	C90.3,64.5,88.8,66,87,66z"/>
<g>
	<path class="st1" d="M92.4,31h-7.5c-0.5,0-1-0.4-1-1V26c0-0.5,0.4-1,1-1h7.5c0.5,0,1,0.4,1,1V30C93.4,30.5,93,31,92.4,31z"/>
	<path class="st1" d="M92.4,51.4h-7.5c-0.5,0-1-0.4-1-1v-3.9c0-0.5,0.4-1,1-1h7.5c0.5,0,1,0.4,1,1v3.9C93.4,50.9,93,51.4,92.4,51.4z
		"/>
</g>
<g>
	<ellipse transform="matrix(0.7071 -0.7071 0.7071 0.7071 -17.2409 27.8392)" class="st1" cx="25" cy="34.7" rx="6.7" ry="6.7"/>
	<path class="st1" d="M37.6,47.3L37.6,47.3c-1.5,1.5-3.8,1.5-5.3,0l-9.5-9.5c-1.5-1.5-1.5-3.8,0-5.3l0,0c1.5-1.5,3.8-1.5,5.3,0
		l9.5,9.5C39,43.5,39,45.8,37.6,47.3z"/>
</g>
</svg>
