<?xml version="1.0" encoding="utf-8"?>
<!-- Generator: Adobe Illustrator 19.2.0, SVG Export Plug-In . SVG Version: 6.00 Build 0)  -->
<svg version="1.1" id="Layer_1" xmlns="http://www.w3.org/2000/svg" xmlns:xlink="http://www.w3.org/1999/xlink" x="0px" y="0px"
	 viewBox="0 0 263.9 263.3" style="enable-background:new 0 0 263.9 263.3;" xml:space="preserve">
<style type="text/css">
	.st0{fill:#29ADE4;}
	.st1{fill:#FFFFFF;}
</style>
<g>
	<path class="st0" d="M241.3,0H23.2C11.1,0,0,9.4,0,22v192c0,10,7,18.5,15.8,21.4c2.1,0.6,4.4,1.2,6.5,1.2h6.5V248
		c0,7,5.9,15.2,13.2,15.2h17.6c7,0,13.2-8.2,13.2-15.2v-11.4h117.9V248c0,7,6.5,15.2,13.8,15.2h17.6c7,0,12.6-8.2,12.6-15.2v-11.4h7
		c2.1,0,4.4-0.6,6.5-1.2c9.4-2.6,15.8-11.4,15.8-21.4V22C263.9,10,253.9,0,241.3,0L241.3,0z M88.5,119c0-5.6,1.2-10.8,3.2-15.8
		L70.1,90.6c-3.2-2.1-4.4-6.5-2.6-10c2.1-3.2,6.5-4.4,10-2.6l21.7,12.6c6.5-7.6,15.8-13.2,26.1-15.2V49.8c0-3.8,3.2-7,7-7s7,3.2,7,7
		v25.5c10.8,1.8,20.2,7,26.7,15.2L188.2,78c3.2-2.1,7.6-0.6,10,2.6c2.1,3.2,0.6,7.6-2.6,10l-21.7,12.6c2.1,5,3.2,10.3,3.2,15.8
		s-1.2,10.3-2.6,14.7l21.7,12.6c3.2,2.1,4.4,6.5,2.6,10c-1.2,2.1-3.8,3.8-5.9,3.8c-1.2,0-2.1-0.6-3.8-1.2l-21.7-12.6
		c-6.5,8.2-15.8,14.1-27.3,15.8v25.2c0,3.8-3.2,7-7,7s-7-3.2-7-7v-25.2c-10.8-1.8-20.2-7.6-26.7-15.8L78,158.9
		c-1.2,0.6-2.1,1.2-3.2,1.2c-2.6,0-5-1.2-5.9-3.8c-2.1-3.2-0.6-7.6,2.6-10l21.7-12.6C89.7,129,88.5,124,88.5,119L88.5,119z"/>
</g>
<g>
	<g>
		<path class="st1" d="M133.1,161.9c-23.9,0-43.4-19.4-43.4-43.4c0-23.9,19.4-43.4,43.4-43.4c23.9,0,43.4,19.4,43.4,43.4
			C176.5,142.4,157,161.9,133.1,161.9z"/>
		<path class="st0" d="M133.1,77.2c22.8,0,41.4,18.6,41.4,41.4S155.9,160,133.1,160s-41.4-18.6-41.4-41.4S110.3,77.2,133.1,77.2
			 M133.1,73.2c-25,0-45.4,20.3-45.4,45.4c0,25,20.3,45.4,45.4,45.4s45.4-20.3,45.4-45.4S158.1,73.2,133.1,73.2L133.1,73.2z"/>
	</g>
	<g>
		<path class="st0" d="M153.1,95.1h-40c-2.2,0-4.2,1.7-4.2,4v35.2c0,1.8,1.3,3.4,2.9,3.9c0.4,0.1,0.8,0.2,1.2,0.2h1.2v2.1
			c0,1.3,1.1,2.8,2.4,2.8h3.2c1.3,0,2.4-1.5,2.4-2.8v-2.1h21.6v2.1c0,1.3,1.2,2.8,2.5,2.8h3.2c1.3,0,2.3-1.5,2.3-2.8v-2.1h1.3
			c0.4,0,0.8-0.1,1.2-0.2c1.7-0.5,2.9-2.1,2.9-3.9V99.1C157.2,96.9,155.4,95.1,153.1,95.1L153.1,95.1z M125.1,116.9
			c0-1,0.2-2,0.6-2.9l-4-2.3c-0.6-0.4-0.8-1.2-0.5-1.8c0.4-0.6,1.2-0.8,1.8-0.5l4,2.3c1.2-1.4,2.9-2.4,4.8-2.8v-4.7
			c0-0.7,0.6-1.3,1.3-1.3s1.3,0.6,1.3,1.3v4.7c2,0.3,3.7,1.3,4.9,2.8l4.1-2.3c0.6-0.4,1.4-0.1,1.8,0.5c0.4,0.6,0.1,1.4-0.5,1.8
			l-4,2.3c0.4,0.9,0.6,1.9,0.6,2.9s-0.2,1.9-0.5,2.7l4,2.3c0.6,0.4,0.8,1.2,0.5,1.8c-0.2,0.4-0.7,0.7-1.1,0.7
			c-0.2,0-0.4-0.1-0.7-0.2l-4-2.3c-1.2,1.5-2.9,2.6-5,2.9v4.6c0,0.7-0.6,1.3-1.3,1.3c-0.7,0-1.3-0.6-1.3-1.3v-4.6
			c-2-0.3-3.7-1.4-4.9-2.9l-3.9,2.3c-0.2,0.1-0.4,0.2-0.6,0.2c-0.5,0-0.9-0.2-1.1-0.7c-0.4-0.6-0.1-1.4,0.5-1.8l4-2.3
			C125.3,118.7,125.1,117.8,125.1,116.9L125.1,116.9z"/>
	</g>
</g>
</svg>
