<?xml version="1.0" encoding="utf-8"?>
<!-- Generator: Adobe Illustrator 19.2.0, SVG Export Plug-In . SVG Version: 6.00 Build 0)  -->
<svg version="1.1" id="Layer_1" xmlns="http://www.w3.org/2000/svg" xmlns:xlink="http://www.w3.org/1999/xlink" x="0px" y="0px"
	 viewBox="0 0 90.8 90.8" style="enable-background:new 0 0 90.8 90.8;" xml:space="preserve">
<style type="text/css">
	.st0{fill:#FFFFFF;}
	.st1{fill:#29ADE4;}
	.st2{fill:#27AAE1;}
	.st3{fill:#27AAE1;stroke:#FFFFFF;stroke-miterlimit:10;}
</style>
<g>
	<path class="st0" d="M45.2,88.8c-23.9,0-43.4-19.4-43.4-43.4S21.2,2,45.2,2c23.9,0,43.4,19.4,43.4,43.4S69.1,88.8,45.2,88.8z"/>
	<path class="st1" d="M45.2,4.1c22.8,0,41.4,18.6,41.4,41.4S68,86.9,45.2,86.9S3.8,68.3,3.8,45.5S22.4,4.1,45.2,4.1 M45.2,0.1
		c-25,0-45.4,20.3-45.4,45.4s20.3,45.4,45.4,45.4s45.4-20.3,45.4-45.4S70.2,0.1,45.2,0.1L45.2,0.1z"/>
</g>
<g>
	<path class="st2" d="M68.2,25.7H22.1c-0.7,0-1.3,0.6-1.3,1.3v30.3v4.5v3.5h13.2v-2.2h22.4v2.1h13.2v-3.5v-4.5V27
		C69.6,26.3,69,25.7,68.2,25.7z"/>
	<path class="st3" d="M63.7,58.1h-37c-0.9,0-1.6-0.7-1.6-1.6V32c0-0.9,0.7-1.6,1.6-1.6h37c0.9,0,1.6,0.7,1.6,1.6v24.4
		C65.3,57.4,64.6,58.1,63.7,58.1z"/>
	<g>
		<path class="st3" d="M66.4,40.7h-3.7c-0.2,0-0.5-0.2-0.5-0.5v-2c0-0.2,0.2-0.5,0.5-0.5h3.7c0.2,0,0.5,0.2,0.5,0.5v2
			C66.9,40.4,66.7,40.7,66.4,40.7z"/>
		<path class="st3" d="M66.4,50.8h-3.7c-0.2,0-0.5-0.2-0.5-0.5v-1.9c0-0.2,0.2-0.5,0.5-0.5h3.7c0.2,0,0.5,0.2,0.5,0.5v1.9
			C66.9,50.6,66.7,50.8,66.4,50.8z"/>
	</g>
	<g>
		<ellipse transform="matrix(0.7071 -0.7071 0.7071 0.7071 -20.4742 35.5826)" class="st3" cx="32.7" cy="42.5" rx="3.3" ry="3.3"/>
		<path class="st3" d="M39,48.8L39,48.8c-0.7,0.7-1.9,0.7-2.6,0l-4.7-4.7c-0.7-0.7-0.7-1.9,0-2.6l0,0c0.7-0.7,1.9-0.7,2.6,0l4.7,4.7
			C39.7,46.9,39.7,48,39,48.8z"/>
	</g>
</g>
</svg>
