<?xml version="1.0" encoding="utf-8"?>
<!-- Generator: Adobe Illustrator 19.2.0, SVG Export Plug-In . SVG Version: 6.00 Build 0)  -->
<svg version="1.1" id="Layer_1" xmlns="http://www.w3.org/2000/svg" xmlns:xlink="http://www.w3.org/1999/xlink" x="0px" y="0px"
	 viewBox="0 0 90.8 90.8" style="enable-background:new 0 0 90.8 90.8;" xml:space="preserve">
<style type="text/css">
	.st0{fill:#FFFFFF;}
	.st1{fill:#29ADE4;}
</style>
<g>
	<path class="st0" d="M45.4,88.7C21.5,88.7,2,69.3,2,45.3C2,21.4,21.4,1.9,45.4,1.9c23.9,0,43.4,19.4,43.4,43.4
		C88.8,69.2,69.3,88.7,45.4,88.7z"/>
	<path class="st1" d="M45.4,4c22.8,0,41.4,18.6,41.4,41.4S68.2,86.8,45.4,86.8S4,68.2,4,45.4S22.6,4,45.4,4 M45.4,0
		C20.4,0,0,20.3,0,45.4c0,25,20.3,45.4,45.4,45.4s45.4-20.3,45.4-45.4S70.4,0,45.4,0L45.4,0z"/>
</g>
<g>
	<path class="st1" d="M65.4,21.9h-40c-2.2,0-4.2,1.7-4.2,4v35.2c0,1.8,1.3,3.4,2.9,3.9c0.4,0.1,0.8,0.2,1.2,0.2h1.2v2.1
		c0,1.3,1.1,2.8,2.4,2.8h3.2c1.3,0,2.4-1.5,2.4-2.8v-2.1h21.6v2.1c0,1.3,1.2,2.8,2.5,2.8h3.2c1.3,0,2.3-1.5,2.3-2.8v-2.1h1.3
		c0.4,0,0.8-0.1,1.2-0.2c1.7-0.5,2.9-2.1,2.9-3.9V25.9C69.5,23.7,67.7,21.9,65.4,21.9L65.4,21.9z M37.4,43.7c0-1,0.2-2,0.6-2.9
		l-4-2.3c-0.6-0.4-0.8-1.2-0.5-1.8c0.4-0.6,1.2-0.8,1.8-0.5l4,2.3c1.2-1.4,2.9-2.4,4.8-2.8V31c0-0.7,0.6-1.3,1.3-1.3
		s1.3,0.6,1.3,1.3v4.7c2,0.3,3.7,1.3,4.9,2.8l4.1-2.3c0.6-0.4,1.4-0.1,1.8,0.5c0.4,0.6,0.1,1.4-0.5,1.8l-4,2.3
		c0.4,0.9,0.6,1.9,0.6,2.9s-0.2,1.9-0.5,2.7l4,2.3c0.6,0.4,0.8,1.2,0.5,1.8c-0.2,0.4-0.7,0.7-1.1,0.7c-0.2,0-0.4-0.1-0.7-0.2l-4-2.3
		c-1.2,1.5-2.9,2.6-5,2.9v4.6c0,0.7-0.6,1.3-1.3,1.3s-1.3-0.6-1.3-1.3v-4.6c-2-0.3-3.7-1.4-4.9-2.9L35.4,51
		c-0.2,0.1-0.4,0.2-0.6,0.2c-0.5,0-0.9-0.2-1.1-0.7c-0.4-0.6-0.1-1.4,0.5-1.8l4-2.3C37.6,45.5,37.4,44.6,37.4,43.7L37.4,43.7z"/>
</g>
</svg>
