<?xml version="1.0" encoding="utf-8"?>
<!-- Generator: Adobe Illustrator 19.1.0, SVG Export Plug-In . SVG Version: 6.00 Build 0)  -->
<svg version="1.1" id="Layer_1" xmlns="http://www.w3.org/2000/svg" xmlns:xlink="http://www.w3.org/1999/xlink" x="0px" y="0px"
	 viewBox="-260 351.3 90.7 90.7" style="enable-background:new -260 351.3 90.7 90.7;" xml:space="preserve">
<style type="text/css">
	.st0{fill:#FFFFFF;}
	.st1{fill:#29ADE4;}
</style>
<g>
	<path class="st0" d="M-214.6,440c-23.9,0-43.4-19.4-43.4-43.4s19.4-43.4,43.4-43.4c23.9,0,43.4,19.4,43.4,43.4
		S-190.7,440-214.6,440z"/>
	<path class="st1" d="M-214.6,355.3c22.8,0,41.4,18.6,41.4,41.4c0,22.8-18.6,41.4-41.4,41.4s-41.4-18.6-41.4-41.4
		C-256,373.9-237.4,355.3-214.6,355.3 M-214.6,351.3c-25,0-45.4,20.3-45.4,45.4c0,25,20.3,45.4,45.4,45.4s45.4-20.3,45.4-45.4
		S-189.6,351.3-214.6,351.3L-214.6,351.3z"/>
</g>
<g>
	<g>
		<path class="st1" d="M-215.8,417.5c0,1.1-0.6,2.2-1.7,2.6c-0.4,0.2-0.8,0.3-1.3,0.3c-0.6,0-1.3-0.2-1.8-0.7l-15.8-13.1h-8.5
			c-1.5,0-2.9-1.3-2.9-2.9v-11.5c0-1.6,1.3-2.9,2.9-2.9h8.5l15.9-13.2c0.8-0.7,2.1-0.8,3.1-0.4c1,0.5,1.7,1.5,1.7,2.6L-215.8,417.5
			L-215.8,417.5z M-204.6,412.9c-0.1,0-0.1,0-0.2,0c-0.8,0-1.5-0.3-2-0.8l-0.4-0.4c-1-1-1.1-2.6-0.3-3.8c2.2-2.9,3.3-6.4,3.3-10
			c0-3.9-1.3-7.5-3.8-10.6c-0.9-1.1-0.8-2.8,0.2-3.8l0.4-0.4c0.6-0.6,1.3-0.9,2.2-0.8s1.6,0.4,2.1,1c3.4,4.2,5.2,9.2,5.2,14.7
			c0,5-1.6,9.8-4.6,13.8C-203,412.4-203.8,412.8-204.6,412.9L-204.6,412.9z M-192.7,421.9c-0.6,0.6-1.3,1-2.1,1c-0.1,0-0.1,0-0.1,0
			c-0.8,0-1.5-0.3-2-0.8l-0.3-0.3c-1-1-1.1-2.7-0.1-3.9c4.7-5.5,7.3-12.6,7.3-19.8c0-7.5-2.7-14.8-7.8-20.5c-1-1.1-1-2.9,0.1-4
			l0.3-0.3c0.5-0.6,1.3-0.9,2.1-0.9c0.8,0,1.5,0.3,2.1,1c6,6.8,9.4,15.6,9.4,24.7C-184,406.7-187,415.1-192.7,421.9L-192.7,421.9z"
			/>
	</g>
</g>
</svg>
