<?xml version="1.0" encoding="utf-8"?>
<!-- Generator: Adobe Illustrator 19.2.0, SVG Export Plug-In . SVG Version: 6.00 Build 0)  -->
<svg version="1.1" id="Layer_1" xmlns="http://www.w3.org/2000/svg" xmlns:xlink="http://www.w3.org/1999/xlink" x="0px" y="0px"
	 viewBox="0 0 91.2 72.5" style="enable-background:new 0 0 91.2 72.5;" xml:space="preserve">
<style type="text/css">
	.st0{fill:#29ADE4;}
</style>
<g>
	<g>
		<path class="st0" d="M45.6,64.7c0,1.6-0.9,3.1-2.4,3.7c-0.6,0.3-1.2,0.4-1.8,0.4c-0.9,0-1.9-0.3-2.6-1L16.2,49.1H4.1
			C1.9,49.1,0,47.3,0,45V28.5c0-2.3,1.9-4.1,4.1-4.1h12.1L38.9,5.5c1.2-1,3-1.2,4.4-0.6c1.5,0.7,2.4,2.1,2.4,3.7V64.7z M61.6,58.2
			c-0.1,0-0.2,0-0.3,0c-1.1,0-2.2-0.4-2.9-1.2l-0.6-0.6c-1.5-1.5-1.6-3.7-0.4-5.4c3.1-4.2,4.7-9.1,4.7-14.3c0-5.6-1.9-10.8-5.4-15.2
			c-1.3-1.6-1.2-4,0.3-5.5l0.6-0.6c0.8-0.8,1.9-1.3,3.1-1.2c1.2,0.1,2.3,0.6,3,1.5c4.9,6,7.5,13.2,7.5,21c0,7.2-2.3,14.1-6.6,19.8
			C63.9,57.5,62.8,58.1,61.6,58.2L61.6,58.2z M78.7,71c-0.8,0.9-1.8,1.4-3,1.5c-0.1,0-0.1,0-0.2,0c-1.1,0-2.2-0.4-2.9-1.2l-0.5-0.5
			c-1.5-1.5-1.6-3.9-0.2-5.6c6.7-7.9,10.4-18,10.4-28.4c0-10.8-3.9-21.2-11.1-29.3c-1.5-1.6-1.4-4.1,0.2-5.7l0.5-0.5
			C72.6,0.4,73.7,0,74.9,0c1.1,0,2.2,0.5,3,1.4c8.6,9.7,13.4,22.3,13.4,35.3C91.2,49.3,86.8,61.4,78.7,71L78.7,71z M78.7,71"/>
	</g>
</g>
</svg>
