<?xml version="1.0" encoding="utf-8"?>
<!-- Generator: Adobe Illustrator 19.1.0, SVG Export Plug-In . SVG Version: 6.00 Build 0)  -->
<svg version="1.1" id="Layer_1" xmlns="http://www.w3.org/2000/svg" xmlns:xlink="http://www.w3.org/1999/xlink" x="0px" y="0px"
	 viewBox="-260 351.3 90.7 90.7" style="enable-background:new -260 351.3 90.7 90.7;" xml:space="preserve">
<style type="text/css">
	.st0{fill:#FFFFFF;}
	.st1{fill:#29ADE4;}
</style>
<g>
	<path class="st0" d="M-214.6,440c-23.9,0-43.4-19.4-43.4-43.4s19.4-43.4,43.4-43.4c23.9,0,43.4,19.4,43.4,43.4
		S-190.7,440-214.6,440z"/>
	<path class="st1" d="M-214.6,355.3c22.8,0,41.4,18.6,41.4,41.4s-18.6,41.4-41.4,41.4s-41.4-18.6-41.4-41.4
		S-237.4,355.3-214.6,355.3 M-214.6,351.3c-25,0-45.4,20.3-45.4,45.4c0,25,20.3,45.4,45.4,45.4s45.4-20.3,45.4-45.4
		S-189.6,351.3-214.6,351.3L-214.6,351.3z"/>
</g>
<g>
	<g>
		<path class="st1" d="M-214.1,414.6c0,1-0.5,2-1.6,2.4c-0.4,0.2-0.7,0.3-1.2,0.3c-0.5,0-1.2-0.2-1.6-0.6l-14.4-12h-7.8
			c-1.4,0-2.7-1.2-2.7-2.7v-10.5c0-1.5,1.2-2.6,2.7-2.6h7.8l14.5-12.1c0.7-0.6,1.9-0.7,2.8-0.4c0.9,0.5,1.6,1.4,1.6,2.4
			L-214.1,414.6L-214.1,414.6z M-203.9,410.4c-0.1,0-0.1,0-0.2,0c-0.7,0-1.4-0.3-1.8-0.7l-0.4-0.4c-0.9-0.9-1-2.4-0.3-3.5
			c2-2.7,3-5.8,3-9.1c0-3.6-1.2-6.9-3.5-9.7c-0.8-1-0.7-2.6,0.2-3.5l0.4-0.4c0.5-0.5,1.2-0.8,2-0.7c0.8,0.1,1.5,0.4,1.9,0.9
			c3.1,3.8,4.8,8.4,4.8,13.4c0,4.6-1.5,9-4.2,12.6C-202.4,409.9-203.1,410.3-203.9,410.4L-203.9,410.4z M-193,418.6
			c-0.5,0.5-1.2,0.9-1.9,0.9c-0.1,0-0.1,0-0.1,0c-0.7,0-1.4-0.3-1.8-0.7l-0.3-0.3c-0.9-0.9-1-2.5-0.1-3.6c4.3-5,6.7-11.5,6.7-18.1
			c0-6.9-2.5-13.5-7.1-18.7c-0.9-1-0.9-2.6,0.1-3.7l0.3-0.3c0.5-0.5,1.2-0.8,1.9-0.8s1.4,0.3,1.9,0.9c5.5,6.2,8.6,14.3,8.6,22.6
			C-185,404.7-187.8,412.4-193,418.6L-193,418.6z"/>
	</g>
</g>
</svg>
