<?xml version="1.0" encoding="utf-8"?>
<!-- Generator: Adobe Illustrator 19.2.0, SVG Export Plug-In . SVG Version: 6.00 Build 0)  -->
<svg version="1.1" id="Layer_1" xmlns="http://www.w3.org/2000/svg" xmlns:xlink="http://www.w3.org/1999/xlink" x="0px" y="0px"
	 viewBox="0 0 90.8 90.8" style="enable-background:new 0 0 90.8 90.8;" xml:space="preserve">
<style type="text/css">
	.st0{fill:#FFFFFF;}
	.st1{fill:#29ADE4;}
	.st2{fill:none;stroke:#29ADE4;stroke-miterlimit:10;}
</style>
<g>
	<path class="st0" d="M45.4,88.6C21.5,88.6,2,69.2,2,45.2S21.4,1.8,45.4,1.8c23.9,0,43.4,19.4,43.4,43.4S69.3,88.6,45.4,88.6z"/>
	<path class="st1" d="M45.4,3.9c22.8,0,41.4,18.6,41.4,41.4S68.2,86.7,45.4,86.7S4,68.1,4,45.3S22.6,3.9,45.4,3.9 M45.4-0.1
		C20.4-0.1,0,20.2,0,45.3s20.3,45.4,45.4,45.4s45.4-20.3,45.4-45.4S70.4-0.1,45.4-0.1L45.4-0.1z"/>
</g>
<g>
	<g>
		<path class="st2" d="M47.6,20.9l6,12.2c0.4,0.8,1.2,1.4,2.2,1.6l13.5,2c2.4,0.3,3.3,3.2,1.6,4.9l-9.7,9.5c-0.7,0.7-1,1.6-0.8,2.5
			L62.6,67c0.4,2.3-2.1,4.1-4.2,3l-12-6.3c-0.8-0.4-1.8-0.4-2.7,0l-12.1,6.3c-2.1,1.1-4.6-0.7-4.2-3l2.3-13.4
			c0.2-0.9-0.1-1.9-0.8-2.5l-9.7-9.5c-1.7-1.7-0.8-4.6,1.6-4.9l13.5-2c0.9-0.1,1.7-0.7,2.2-1.6l6-12.2
			C43.5,18.8,46.6,18.8,47.6,20.9L47.6,20.9z M47.6,20.9"/>
	</g>
</g>
</svg>
