<?xml version="1.0" encoding="utf-8"?>
<!-- Generator: Adobe Illustrator 19.2.0, SVG Export Plug-In . SVG Version: 6.00 Build 0)  -->
<svg version="1.1" id="Layer_1" xmlns="http://www.w3.org/2000/svg" xmlns:xlink="http://www.w3.org/1999/xlink" x="0px" y="0px"
	 viewBox="0 0 91 90.8" style="enable-background:new 0 0 91 90.8;" xml:space="preserve">
<style type="text/css">
	.st0{fill:#FFFFFF;}
	.st1{fill:#2BABE2;}
	.st2{fill:#FDD945;}
</style>
<g>
	<path class="st0" d="M45.4,88.7c-24.9,0-45-21.1-43.3-46.5C3.6,21,20.6,3.8,41.8,2c25.5-2.1,47,18.1,47,43.3
		C88.8,69.3,69.3,88.7,45.4,88.7z"/>
	<path class="st1" d="M45.4,0C19.8,0-1,21.3,0,47.2c1,24.2,21.2,43.6,45.4,43.6c25.1,0,45.4-20.3,45.4-45.4S70.4,0,45.4,0L45.4,0z"
		/>
</g>
<g>
	<path class="st2" d="M74.9,38.7l-19.6-4.1l-10-17.3v48l18.3,8.2l-2.1-19.9L74.9,38.7z"/>
	<path class="st2" d="M35.4,34.5l-19.6,4.1l13.4,14.8l-2.1,19.9l18.3-8.2v-48L35.4,34.5z"/>
</g>
</svg>
