<?xml version="1.0" encoding="utf-8"?>
<!-- Generator: Adobe Illustrator 19.2.0, SVG Export Plug-In . SVG Version: 6.00 Build 0)  -->
<svg version="1.1" id="Layer_1" xmlns="http://www.w3.org/2000/svg" xmlns:xlink="http://www.w3.org/1999/xlink" x="0px" y="0px"
	 viewBox="0 0 90.8 90.8" style="enable-background:new 0 0 90.8 90.8;" xml:space="preserve">
<style type="text/css">
	.st0{fill:#FFFFFF;}
	.st1{fill:#29ADE4;}
</style>
<g>
	<path class="st0" d="M45.4,88.7C21.5,88.7,2,69.3,2,45.3S21.5,2,45.4,2s43.4,19.4,43.4,43.4S69.3,88.7,45.4,88.7z"/>
	<path class="st1" d="M45.4,4c22.8,0,41.4,18.6,41.4,41.4S68.2,86.8,45.4,86.8S4,68.2,4,45.4S22.6,4,45.4,4 M45.4,0
		C20.4,0,0,20.3,0,45.4c0,25,20.3,45.4,45.4,45.4c25,0,45.4-20.3,45.4-45.4S70.4,0,45.4,0L45.4,0z"/>
</g>
<path class="st1" d="M71,24.9c-0.6,2.1-2.2,3.6-3.6,5.2c-3.4,3.9-6.8,7.7-10.1,11.6C52,48,47.3,54.9,43,61.9
	c-1.5,2.4-2.9,4.9-4.3,7.3c-1,1.6-2.4,2.6-4.3,2.5c-1.5-0.1-2.5-1-3.1-2.2c-0.5-0.9-0.8-1.9-1.3-2.8c-2.2-4.8-4.8-9.4-8.3-13.4
	c-0.7-0.8-1.6-1.6-2.3-2.4c-0.5-0.6-0.9-1.3-1-2.1c-0.1-2,1.6-3.2,3.5-2.5c1.2,0.5,2.2,1.3,3.2,2.1c3.5,2.8,6.3,6.3,8.8,10
	c0.4,0.5,0.7,1.1,1.1,1.6c0,0,0,0,0.1,0.1c0.1-0.1,0.2-0.2,0.2-0.3c6-8.6,12.5-16.8,19.7-24.4c3.5-3.7,7-7.2,10.5-10.8
	c0.9-0.9,1.9-1.6,3.1-2c0.3,0,0.5,0,0.8,0c0.8,0.3,1.3,0.8,1.5,1.5C71,24.3,71,24.6,71,24.9z"/>
</svg>
