<?xml version="1.0" encoding="utf-8"?>
<!-- Generator: Adobe Illustrator 19.2.0, SVG Export Plug-In . SVG Version: 6.00 Build 0)  -->
<svg version="1.1" id="Layer_1" xmlns="http://www.w3.org/2000/svg" xmlns:xlink="http://www.w3.org/1999/xlink" x="0px" y="0px"
	 viewBox="0 0 90.8 90.8" style="enable-background:new 0 0 90.8 90.8;" xml:space="preserve">
<style type="text/css">
	.st0{fill:#FFFFFF;}
	.st1{fill:#29ADE4;}
</style>
<g>
	<path class="st0" d="M45.4,88.7C21.5,88.7,2,69.3,2,45.3S21.5,2,45.4,2s43.4,19.4,43.4,43.4S69.3,88.7,45.4,88.7z"/>
	<path class="st1" d="M45.4,4c22.8,0,41.4,18.6,41.4,41.4S68.2,86.8,45.4,86.8S4,68.2,4,45.4S22.6,4,45.4,4 M45.4,0
		C20.4,0,0,20.3,0,45.4c0,25,20.3,45.4,45.4,45.4c25,0,45.4-20.3,45.4-45.4C90.8,20.3,70.4,0,45.4,0L45.4,0z"/>
</g>
<g>
	<g>
		<path class="st1" d="M17.7,49c-0.4-0.4-0.6-1.1-0.6-1.5s0.2-1.1,0.6-1.5l3.1-3.1c0.9-0.9,2.2-0.9,3.1,0l0.2,0.2l12,12.9
			c0.4,0.4,1.1,0.4,1.5,0l29.2-30.3H67c0.9-0.9,2.2-0.9,3.1,0l3,3.1c0.9,0.9,0.9,2.2,0,3.1L38.2,68.1c-0.4,0.4-0.9,0.6-1.5,0.6
			s-1.1-0.2-1.5-0.6l-17-18.3L17.7,49z"/>
	</g>
</g>
</svg>
