<?xml version="1.0" encoding="utf-8"?>
<!-- Generator: Adobe Illustrator 21.0.0, SVG Export Plug-In . SVG Version: 6.00 Build 0)  -->
<svg version="1.1" id="Layer_1" xmlns="http://www.w3.org/2000/svg" xmlns:xlink="http://www.w3.org/1999/xlink" x="0px" y="0px"
	 viewBox="0 0 90.8 90.8" style="enable-background:new 0 0 90.8 90.8;" xml:space="preserve">
<style type="text/css">
	.st0{fill:#FFFFFF;}
	.st1{fill:#CACACA;}
</style>
<g>
	<path class="st0" d="M45.4,88.7C21.5,88.7,2,69.3,2,45.3S21.4,1.9,45.4,1.9c23.9,0,43.4,19.4,43.4,43.4S69.3,88.7,45.4,88.7z"/>
	<path class="st1" d="M45.4,4c22.8,0,41.4,18.6,41.4,41.4S68.2,86.8,45.4,86.8S4,68.2,4,45.4S22.6,4,45.4,4 M45.4,0
		C20.4,0,0,20.3,0,45.4s20.3,45.4,45.4,45.4s45.4-20.3,45.4-45.4S70.4,0,45.4,0L45.4,0z"/>
</g>
<g>
	<g>
		<path class="st1" d="M36.2,29c-0.8-0.7-1.8-1.1-2.9-1.1c-2.5,0-4.5,2-4.5,4.5c0,0.7,0.2,1.3,0.4,1.9C31.2,32.1,33.5,30.3,36.2,29
			L36.2,29z"/>
		<path class="st1" d="M45.4,68.4c11,0,19.9-8.9,19.9-19.9c0-9.9-7.2-18-16.6-19.6v-3.7h1.7c0.6,0,1-0.6,1-1.4s-0.5-1.4-1-1.4H40.3
			c-0.6,0-1,0.6-1,1.4s0.5,1.4,1,1.4H42v3.7c-1.7,0.3-3.3,0.8-4.8,1.5c-2.7,1.2-5.1,3-7,5.3c-2.9,3.5-4.7,8-4.7,12.9
			C25.5,59.5,34.4,68.4,45.4,68.4L45.4,68.4z M33.7,36.8c1.1-1.1,2.4-2.1,3.8-2.9c2.4-1.3,5.1-2,7.9-2c9.1,0,16.6,7.4,16.6,16.6
			C62,57.6,54.5,65,45.4,65s-16.6-7.4-16.6-16.6C28.8,44,30.7,39.8,33.7,36.8L33.7,36.8z"/>
	</g>
	<path class="st1" d="M35.4,58.5c0.6,0.6,1.3,1.2,2.1,1.7c0.4,0.3,0.8,0.5,1.2,0.7c2,1.1,4.3,1.7,6.8,1.7c0.3,0,0.6,0,0.9,0
		c1.5-0.1,2.9-0.4,4.3-1c0.5-0.2,1.1-0.5,1.6-0.7c0.4-0.2,0.8-0.5,1.2-0.7c0.8-0.5,1.5-1.1,2.1-1.7c2.6-2.6,4.1-6.1,4.1-10
		s-1.6-7.4-4.1-10c-0.6-0.6-1.3-1.2-2.1-1.7c-0.4-0.3-0.8-0.5-1.2-0.7c-0.5-0.3-1-0.5-1.6-0.7c-1.3-0.5-2.8-0.9-4.3-1
		c-0.3,0-0.6,0-0.9,0c-2.4,0-4.7,0.6-6.8,1.7c-0.4,0.2-0.8,0.5-1.2,0.7c-0.8,0.5-1.5,1.1-2.1,1.7c-2.6,2.6-4.1,6.1-4.1,10
		S32.8,55.9,35.4,58.5L35.4,58.5z M45.4,37.2v10.6l-10.7,4.1C32.8,44.6,38,37.2,45.4,37.2L45.4,37.2z"/>
</g>
</svg>
