<?xml version="1.0" encoding="utf-8"?>
<!-- Generator: Adobe Illustrator 19.2.0, SVG Export Plug-In . SVG Version: 6.00 Build 0)  -->
<svg version="1.1" id="Layer_1" xmlns="http://www.w3.org/2000/svg" xmlns:xlink="http://www.w3.org/1999/xlink" x="0px" y="0px"
	 viewBox="0 0 90.7 90.7" style="enable-background:new 0 0 90.7 90.7;" xml:space="preserve">
<style type="text/css">
	.st0{fill:#FFFFFF;}
	.st1{fill:#29ADE4;}
	.st2{fill:#2BABE2;}
</style>
<g>
	<path class="st0" d="M45.4,88.7C21.5,88.7,2,69.3,2,45.3S21.4,1.9,45.4,1.9c23.9,0,43.4,19.4,43.4,43.4S69.3,88.7,45.4,88.7z"/>
	<path class="st1" d="M45.4,4c22.8,0,41.4,18.6,41.4,41.4S68.2,86.8,45.4,86.8S4,68.2,4,45.4S22.6,4,45.4,4 M45.4,0
		C20.4,0,0,20.3,0,45.4c0,25,20.3,45.4,45.4,45.4s45.4-20.3,45.4-45.4S70.4,0,45.4,0L45.4,0z"/>
</g>
<rect x="15.8" y="35.5" class="st2" width="19.6" height="26"/>
<rect x="35.4" y="24.6" class="st2" width="19.6" height="36.9"/>
<rect x="54.9" y="44.8" class="st2" width="19.6" height="16.7"/>
<g>
	<path class="st0" d="M46.9,38.3c0,0.1,0,0.2-0.1,0.3c-0.1,0.1-0.2,0.1-0.3,0.1c-0.2,0-0.6,0-1.1,0s-0.8,0-1.1,0
		c-0.2,0-0.3-0.1-0.3-0.2l0-0.1c0.1-1.9,0.1-3,0.1-3.4v-2.2c0-0.1,0-0.2-0.1-0.2c-0.1,0-0.2,0-0.4,0.1c-0.2,0.1-0.3,0.1-0.4,0.1
		c-0.2,0-0.2-0.1-0.2-0.3c0-0.2,0-0.4,0-0.7c0-0.3,0-0.6,0-0.8c0-0.1,0.1-0.2,0.2-0.2c0.7-0.3,1.3-0.7,1.7-1.2
		c0.1-0.1,0.2-0.2,0.2-0.2c0,0,0,0,0.1,0c0.2,0,0.5,0.1,0.8,0.2c0.2,0,0.5,0.1,0.9,0.1c0.1,0,0.1,0.1,0.1,0.2c0,0,0,0.1,0,0.2
		c-0.1,0.4-0.1,1.5-0.1,3.1c0,0.6,0,1.4,0,2.5C46.9,36.9,46.9,37.8,46.9,38.3z"/>
</g>
<g>
	<path class="st0" d="M30.1,47.8c0,0.1,0,0.3,0,0.5s0,0.4,0,0.5s0,0.3,0,0.6c0,0.3,0,0.4,0,0.6c0,0.1-0.1,0.2-0.2,0.2
		c-0.1,0-0.3,0-0.7-0.1c-0.4-0.1-1.3-0.1-2.5-0.1c-0.4,0-0.9,0-1.7,0.1c-0.7,0-1.3,0.1-1.7,0.1c-0.1,0-0.2-0.1-0.2-0.2
		c0-0.2-0.1-0.4-0.1-0.7c-0.1-0.5-0.2-0.8-0.2-0.9c0-0.1,0.2-0.2,0.6-0.2c0.5-0.1,0.8-0.2,0.9-0.3c0.5-0.4,1-0.9,1.5-1.6
		c0.7-0.8,1-1.4,1-1.8c0-0.3-0.1-0.6-0.4-0.9c-0.3-0.2-0.5-0.4-0.9-0.4c-0.4,0-0.8,0.1-1.2,0.2c-0.3,0.1-0.5,0.2-0.8,0.4
		c-0.2,0.2-0.4,0.2-0.4,0.2c-0.2,0-0.2-0.2-0.2-0.6c0-0.3,0-0.5,0-0.7c0-0.1,0-0.2-0.1-0.4c-0.1-0.2-0.1-0.3-0.1-0.4
		c0-0.1,0-0.1,0.1-0.2c0.4-0.3,0.9-0.5,1.6-0.7c0.6-0.1,1.2-0.2,1.8-0.2c0.9,0,1.7,0.2,2.3,0.6c0.7,0.5,1.1,1.2,1.1,2
		c0,1.2-0.9,2.5-2.7,4.1c1.3-0.1,2.2-0.1,3-0.1C30,47.6,30.1,47.7,30.1,47.8z"/>
</g>
<g>
	<path class="st0" d="M68,55.1c0,0.9-0.4,1.6-1.1,2.1c-0.6,0.4-1.4,0.6-2.4,0.6c-0.7,0-1.3-0.1-1.8-0.2c-1-0.2-1.5-0.4-1.5-0.6
		c0,0,0-0.1,0-0.1c0.1-0.2,0.2-0.4,0.3-0.8c0-0.2,0.1-0.4,0.2-0.8c0-0.1,0.1-0.2,0.2-0.2c0,0,0.2,0.1,0.7,0.2
		c0.5,0.2,0.8,0.2,1.1,0.2c1,0,1.4-0.3,1.4-1c0-0.5-0.5-0.8-1.4-0.8c-0.1,0-0.3,0-0.5,0c-0.2,0-0.3,0-0.4,0c-0.3,0-0.5,0-0.5,0
		c-0.2,0-0.3-0.1-0.3-0.2c0-0.7,0-1.2,0.1-1.4c0-0.1,0.1-0.2,0.2-0.2c0.2,0,0.4,0,0.7,0.1c0.3,0,0.6,0.1,0.7,0.1
		c0.2,0,0.4-0.1,0.5-0.2s0.2-0.3,0.2-0.5c0-0.6-0.4-0.9-1.3-0.9c-0.4,0-0.8,0.1-1.4,0.3c0,0,0,0-0.1,0c-0.1,0-0.1-0.1-0.2-0.2
		c0-0.2,0-0.4,0-0.7c0-0.1,0-0.2,0-0.4c0-0.1,0-0.3,0-0.3c0-0.3,0.4-0.5,1.2-0.6c0.5-0.1,1.1-0.1,1.6-0.1c0.8,0,1.6,0.2,2.2,0.5
		c0.8,0.4,1.1,1,1.1,1.8c0,0.9-0.4,1.6-1.2,2c0.5,0.2,0.9,0.4,1.1,0.8C67.9,54.2,68,54.6,68,55.1z"/>
</g>
</svg>
