<?xml version="1.0" standalone="no"?>
<!DOCTYPE svg PUBLIC "-//W3C//DTD SVG 20010904//EN"
 "http://www.w3.org/TR/2001/REC-SVG-20010904/DTD/svg10.dtd">
<svg version="1.0" xmlns="http://www.w3.org/2000/svg"
 width="154.000000pt" height="154.000000pt" viewBox="0 0 154.000000 154.000000"
 preserveAspectRatio="xMidYMid meet">
<metadata>
Created by potrace 1.11, written by Peter Selinger 2001-2013
</metadata>
<g transform="translate(0.000000,154.000000) scale(0.100000,-0.100000)"
fill="#000000" stroke="none">
<path d="M610 1465 c-30 -8 -93 -34 -140 -57 -67 -32 -102 -58 -165 -122 -93
-93 -139 -173 -181 -311 -38 -125 -40 -285 -6 -395 36 -116 85 -196 176 -285
134 -133 285 -195 476 -195 119 0 201 19 310 72 120 58 240 178 298 298 79
164 90 322 37 505 -67 231 -212 391 -425 470 -64 24 -93 28 -200 31 -89 3
-141 0 -180 -11z m247 -200 c90 -45 123 -118 123 -272 l0 -93 30 0 c34 0 66
-28 75 -63 4 -13 5 -97 3 -186 l-3 -163 -28 -24 -28 -24 -268 0 c-256 0 -269
1 -295 21 l-26 20 0 187 c0 177 1 187 22 209 13 13 33 23 50 23 l28 0 0 110
c0 77 5 122 16 148 48 117 184 165 301 107z"/>
<path d="M680 1152 c-33 -33 -43 -83 -38 -182 l3 -65 113 -3 114 -3 -4 112 -3
111 -33 29 c-46 41 -111 41 -152 1z"/>
<path d="M896 794 c-49 -37 -114 -104 -152 -156 l-23 -30 -16 31 c-17 34 -31
38 -61 17 -19 -14 -19 -15 3 -38 12 -13 29 -42 38 -65 17 -42 17 -42 40 -25
13 9 30 28 37 42 25 50 103 154 150 201 26 26 48 51 48 54 0 12 -20 3 -64 -31z"/>
</g>
</svg>
