<?xml version="1.0" standalone="no"?>
<!DOCTYPE svg PUBLIC "-//W3C//DTD SVG 20010904//EN"
 "http://www.w3.org/TR/2001/REC-SVG-20010904/DTD/svg10.dtd">
<svg version="1.0" xmlns="http://www.w3.org/2000/svg"
 width="700.000000pt" height="700.000000pt" viewBox="0 0 700.000000 700.000000"
 preserveAspectRatio="xMidYMid meet">
<metadata>
Created by potrace 1.11, written by Peter Selinger 2001-2013
</metadata>
<g transform="translate(0.000000,700.000000) scale(0.100000,-0.100000)"
fill="#000000" stroke="none">
<path d="M3290 6994 c-19 -2 -87 -9 -150 -15 -1135 -107 -2180 -809 -2725
-1831 -216 -403 -338 -799 -397 -1288 -20 -160 -16 -593 6 -765 74 -584 256
-1075 573 -1547 521 -777 1331 -1312 2253 -1487 227 -43 374 -55 650 -55 276
0 423 12 650 55 922 175 1732 710 2253 1487 317 472 499 963 573 1547 22 172
26 605 6 765 -100 822 -420 1505 -972 2074 -566 584 -1290 942 -2105 1042
-122 14 -538 27 -615 18z m355 -974 c489 -56 902 -391 1059 -861 52 -156 58
-207 63 -501 l5 -278 -261 0 -262 0 2 233 c1 271 -7 323 -76 462 -129 260
-379 416 -665 417 -134 0 -219 -20 -340 -79 -80 -40 -109 -61 -185 -137 -98
-98 -151 -185 -196 -321 -23 -69 -23 -77 -27 -597 l-3 -528 1066 0 c1040 0
1067 0 1104 -20 53 -27 105 -91 125 -153 15 -47 16 -148 14 -1067 l-3 -1015
-24 -45 c-30 -58 -67 -97 -113 -121 -36 -18 -79 -19 -1428 -19 -1349 0 -1392
1 -1428 19 -46 24 -83 63 -113 121 l-24 45 -3 1015 c-3 1131 -6 1077 65 1160
49 57 99 80 172 80 l60 0 4 553 c4 597 4 598 63 776 191 572 749 928 1349 861z"/>
<path d="M4328 3417 c-21 -8 -725 -730 -1100 -1128 -21 -21 -46 -39 -56 -39
-12 0 -108 95 -257 254 -130 140 -244 257 -252 260 -8 3 -29 6 -46 6 -25 0
-45 -14 -109 -78 -62 -62 -78 -84 -78 -108 0 -24 56 -90 350 -409 193 -209
359 -384 369 -389 11 -5 30 -6 43 -3 20 5 541 540 1256 1289 152 160 153 164
60 263 -86 92 -118 107 -180 82z"/>
</g>
</svg>
