<?xml version="1.0" standalone="no"?>
<!DOCTYPE svg PUBLIC "-//W3C//DTD SVG 20010904//EN"
 "http://www.w3.org/TR/2001/REC-SVG-20010904/DTD/svg10.dtd">
<svg version="1.0" xmlns="http://www.w3.org/2000/svg"
 width="700.000000pt" height="700.000000pt" viewBox="0 0 700.000000 700.000000"
 preserveAspectRatio="xMidYMid meet">
<metadata>
Created by potrace 1.11, written by Peter Selinger 2001-2013
</metadata>
<g transform="translate(0.000000,700.000000) scale(0.100000,-0.100000)"
fill="#000000" stroke="none">
<path d="M3265 6994 c-377 -38 -568 -76 -858 -170 -772 -252 -1447 -783 -1879
-1478 -278 -447 -441 -918 -510 -1476 -17 -138 -17 -602 0 -740 56 -455 155
-794 343 -1175 344 -700 894 -1250 1594 -1594 505 -248 972 -356 1545 -356
573 0 1040 108 1545 356 700 344 1250 894 1594 1594 188 381 287 720 343 1175
17 138 17 602 0 740 -56 451 -170 836 -357 1205 -422 830 -1158 1464 -2032
1749 -237 77 -417 117 -678 152 -104 14 -564 27 -650 18z m478 -989 c436 -83
800 -398 951 -822 61 -170 76 -281 76 -570 l0 -233 -260 0 -261 0 2 238 c2
213 0 245 -19 315 -71 260 -274 464 -538 538 -109 31 -267 31 -378 0 -223 -62
-415 -231 -500 -440 -53 -131 -56 -169 -56 -706 l0 -495 1060 0 c1161 0 1099
3 1163 -58 16 -15 41 -49 55 -77 l27 -50 3 -1009 c3 -1116 5 -1071 -61 -1158
-18 -24 -52 -53 -77 -65 l-44 -23 -1386 0 -1386 0 -44 22 c-25 13 -59 42 -77
66 -66 87 -64 42 -61 1158 l3 1009 27 50 c49 93 115 135 213 135 l55 0 0 508
c0 589 6 648 76 845 117 330 370 603 683 737 131 57 246 87 401 104 65 8 275
-4 353 -19z"/>
<path d="M4322 3416 c-13 -6 -273 -271 -578 -588 -329 -343 -562 -578 -572
-578 -11 0 -116 104 -256 254 -141 151 -248 258 -265 264 -41 14 -76 -5 -153
-86 -99 -102 -101 -95 85 -294 83 -91 242 -262 352 -382 110 -119 210 -219
222 -222 47 -12 -32 -91 1311 1308 92 96 102 110 102 143 0 33 -9 46 -79 116
-69 69 -83 79 -112 78 -19 -1 -44 -7 -57 -13z"/>
</g>
</svg>
