<?xml version="1.0" encoding="utf-8"?>
<!-- Generator: Adobe Illustrator 19.2.0, SVG Export Plug-In . SVG Version: 6.00 Build 0)  -->
<svg version="1.1" id="Layer_1" xmlns="http://www.w3.org/2000/svg" xmlns:xlink="http://www.w3.org/1999/xlink" x="0px" y="0px"
	 viewBox="0 0 308.6 1406.5" style="enable-background:new 0 0 308.6 1406.5;" xml:space="preserve">
<style type="text/css">
	.st0{fill:#FFFFFF;}
	.st1{fill:#29ADE4;}
</style>
<g>
	<path class="st0" d="M154.3,152.7c-23.9,0-43.4-19.4-43.4-43.4S130.4,66,154.3,66c23.9,0,43.4,19.4,43.4,43.4
		S178.2,152.7,154.3,152.7z"/>
	<path class="st1" d="M154.3,68c22.8,0,41.4,18.6,41.4,41.4s-18.6,41.4-41.4,41.4s-41.4-18.6-41.4-41.4S131.5,68,154.3,68 M154.3,64
		c-25,0-45.4,20.3-45.4,45.4c0,25,20.3,45.4,45.4,45.4c25,0,45.4-20.3,45.4-45.4C199.7,84.3,179.3,64,154.3,64L154.3,64z"/>
</g>
<g>
	<g>
		<path class="st1" d="M126.6,113c-0.4-0.4-0.6-1.1-0.6-1.5c0-0.4,0.2-1.1,0.6-1.5l3.1-3.1c0.9-0.9,2.2-0.9,3.1,0l0.2,0.2l12,12.9
			c0.4,0.4,1.1,0.4,1.5,0l29.2-30.3h0.2c0.9-0.9,2.2-0.9,3.1,0l3,3.1c0.9,0.9,0.9,2.2,0,3.1l-34.9,36.2c-0.4,0.4-0.9,0.6-1.5,0.6
			c-0.6,0-1.1-0.2-1.5-0.6l-17-18.3L126.6,113z M126.6,113"/>
	</g>
</g>
<g>
	<path class="st0" d="M154.3,257.6c-23.9,0-43.4-19.4-43.4-43.4s19.4-43.4,43.4-43.4c23.9,0,43.4,19.4,43.4,43.4
		S178.2,257.6,154.3,257.6z"/>
	<path class="st1" d="M154.3,172.9c22.8,0,41.4,18.6,41.4,41.4s-18.6,41.4-41.4,41.4s-41.4-18.6-41.4-41.4S131.5,172.9,154.3,172.9
		 M154.3,168.9c-25,0-45.4,20.3-45.4,45.4c0,25,20.3,45.4,45.4,45.4c25,0,45.4-20.3,45.4-45.4C199.7,189.2,179.3,168.9,154.3,168.9
		L154.3,168.9z"/>
</g>
<g>
	<g>
		<path class="st1" d="M171.8,207.9h-1v-4.8c0-9-7.1-16.4-16-16.6c-0.2,0-0.7,0-1,0c-8.9,0.2-16,7.6-16,16.6v4.8h-1
			c-1.6,0-2.9,1.6-2.9,3.7v24.3c0,2,1.3,3.7,2.9,3.7h35c1.6,0,2.9-1.7,2.9-3.7v-24.3C174.7,209.5,173.4,207.9,171.8,207.9
			L171.8,207.9z M157.6,223.7v7.3c0,0.8-0.7,1.6-1.5,1.6h-3.5c-0.8,0-1.5-0.7-1.5-1.6v-7.3c-0.8-0.8-1.3-1.9-1.3-3.1
			c0-2.3,1.8-4.3,4.1-4.4c0.2,0,0.7,0,1,0c2.3,0.1,4.1,2.1,4.1,4.4C158.9,221.8,158.4,222.9,157.6,223.7L157.6,223.7z M164,207.9
			h-19.3v-4.8c0-5.3,4.3-9.7,9.7-9.7c5.3,0,9.7,4.4,9.7,9.7V207.9z M164,207.9"/>
	</g>
</g>
<g>
	<path class="st0" d="M154.3,362.5c-23.9,0-43.4-19.4-43.4-43.4s19.4-43.4,43.4-43.4c23.9,0,43.4,19.4,43.4,43.4
		S178.2,362.5,154.3,362.5z"/>
	<path class="st1" d="M154.3,277.8c22.8,0,41.4,18.6,41.4,41.4s-18.6,41.4-41.4,41.4s-41.4-18.6-41.4-41.4S131.5,277.8,154.3,277.8
		 M154.3,273.8c-25,0-45.4,20.3-45.4,45.4c0,25,20.3,45.4,45.4,45.4c25,0,45.4-20.3,45.4-45.4C199.7,294.1,179.3,273.8,154.3,273.8
		L154.3,273.8z"/>
</g>
<g>
	<path class="st1" d="M174.3,295.7h-40c-2.2,0-4.2,1.7-4.2,4v35.2c0,1.8,1.3,3.4,2.9,3.9c0.4,0.1,0.8,0.2,1.2,0.2h1.2v2.1
		c0,1.3,1.1,2.8,2.4,2.8h3.2c1.3,0,2.4-1.5,2.4-2.8V339H165v2.1c0,1.3,1.2,2.8,2.5,2.8h3.2c1.3,0,2.3-1.5,2.3-2.8V339h1.3
		c0.4,0,0.8-0.1,1.2-0.2c1.7-0.5,2.9-2.1,2.9-3.9v-35.2C178.4,297.5,176.6,295.7,174.3,295.7L174.3,295.7z M146.3,317.5
		c0-1,0.2-2,0.6-2.9l-4-2.3c-0.6-0.4-0.8-1.2-0.5-1.8c0.4-0.6,1.2-0.8,1.8-0.5l4,2.3c1.2-1.4,2.9-2.4,4.8-2.8v-4.7
		c0-0.7,0.6-1.3,1.3-1.3c0.7,0,1.3,0.6,1.3,1.3v4.7c2,0.3,3.7,1.3,4.9,2.8l4.1-2.3c0.6-0.4,1.4-0.1,1.8,0.5c0.4,0.6,0.1,1.4-0.5,1.8
		l-4,2.3c0.4,0.9,0.6,1.9,0.6,2.9c0,1-0.2,1.9-0.5,2.7l4,2.3c0.6,0.4,0.8,1.2,0.5,1.8c-0.2,0.4-0.7,0.7-1.1,0.7
		c-0.2,0-0.4-0.1-0.7-0.2l-4-2.3c-1.2,1.5-2.9,2.6-5,2.9v4.6c0,0.7-0.6,1.3-1.3,1.3c-0.7,0-1.3-0.6-1.3-1.3v-4.6
		c-2-0.3-3.7-1.4-4.9-2.9l-3.9,2.3c-0.2,0.1-0.4,0.2-0.6,0.2c-0.5,0-0.9-0.2-1.1-0.7c-0.4-0.6-0.1-1.4,0.5-1.8l4-2.3
		C146.5,319.3,146.3,318.4,146.3,317.5L146.3,317.5z M146.3,317.5"/>
</g>
<g>
	<path class="st0" d="M154.3,467.4c-23.9,0-43.4-19.4-43.4-43.4s19.4-43.4,43.4-43.4c23.9,0,43.4,19.4,43.4,43.4
		S178.2,467.4,154.3,467.4z"/>
	<path class="st1" d="M154.3,382.7c22.8,0,41.4,18.6,41.4,41.4s-18.6,41.4-41.4,41.4s-41.4-18.6-41.4-41.4S131.5,382.7,154.3,382.7
		 M154.3,378.7c-25,0-45.4,20.3-45.4,45.4c0,25,20.3,45.4,45.4,45.4c25,0,45.4-20.3,45.4-45.4C199.7,399,179.3,378.7,154.3,378.7
		L154.3,378.7z"/>
</g>
<g>
	<path class="st1" d="M172.4,406c0-1.8,0-3,0-3l-17.9,0h-0.2l-17.9,0c0,0-0.1,1.2,0,3h-11.9v2c0,0.4,0.1,11,6.6,16.7
		c2.7,2.4,6.1,3.6,10.1,3.6c0.6,0,1.2,0,1.8-0.1c2.3,3.1,4.9,5.3,7.8,6.4v8.6h-8.6v5.4h-2.9v3h30.1v-3h-2.9v-5.4h-8.6v-8.6
		c2.9-1.1,5.6-3.3,7.8-6.4c0.6,0,1.2,0.1,1.9,0.1c4,0,7.4-1.2,10.1-3.6c6.5-5.8,6.6-16.3,6.6-16.7v-2H172.4z M133.6,421.8
		c-3.7-3.3-4.8-8.9-5.1-11.9h8c0.3,3.7,1.1,8.3,3,12.3c0.3,0.7,0.7,1.5,1.1,2.1C137.8,424.3,135.5,423.5,133.6,421.8L133.6,421.8z
		 M175.1,421.8c-1.8,1.6-4.2,2.5-6.9,2.6c0.4-0.7,0.7-1.4,1.1-2.1c1.9-4,2.7-8.6,3-12.3h8C179.9,412.9,178.8,418.6,175.1,421.8
		L175.1,421.8z M175.1,421.8"/>
</g>
<g>
	<path class="st0" d="M154.3,572.2c-23.9,0-43.4-19.4-43.4-43.4s19.4-43.4,43.4-43.4c23.9,0,43.4,19.4,43.4,43.4
		S178.2,572.2,154.3,572.2z"/>
	<path class="st1" d="M154.3,487.5c22.8,0,41.4,18.6,41.4,41.4c0,22.8-18.6,41.4-41.4,41.4s-41.4-18.6-41.4-41.4
		C112.9,506.1,131.5,487.5,154.3,487.5 M154.3,483.5c-25,0-45.4,20.3-45.4,45.4c0,25,20.3,45.4,45.4,45.4c25,0,45.4-20.3,45.4-45.4
		C199.7,503.8,179.3,483.5,154.3,483.5L154.3,483.5z"/>
</g>
<g>
	<path class="st0" d="M154.3,677.1c-23.9,0-43.4-19.4-43.4-43.4s19.4-43.4,43.4-43.4c23.9,0,43.4,19.4,43.4,43.4
		S178.2,677.1,154.3,677.1z"/>
	<path class="st1" d="M154.3,592.4c22.8,0,41.4,18.6,41.4,41.4s-18.6,41.4-41.4,41.4s-41.4-18.6-41.4-41.4S131.5,592.4,154.3,592.4
		 M154.3,588.4c-25,0-45.4,20.3-45.4,45.4s20.3,45.4,45.4,45.4c25,0,45.4-20.3,45.4-45.4S179.3,588.4,154.3,588.4L154.3,588.4z"/>
</g>
<g>
	<path class="st0" d="M154.3,782c-23.9,0-43.4-19.4-43.4-43.4s19.4-43.4,43.4-43.4c23.9,0,43.4,19.4,43.4,43.4S178.2,782,154.3,782z
		"/>
	<path class="st1" d="M154.3,697.3c22.8,0,41.4,18.6,41.4,41.4S177.1,780,154.3,780s-41.4-18.6-41.4-41.4S131.5,697.3,154.3,697.3
		 M154.3,693.3c-25,0-45.4,20.3-45.4,45.4s20.3,45.4,45.4,45.4c25,0,45.4-20.3,45.4-45.4S179.3,693.3,154.3,693.3L154.3,693.3z"/>
</g>
<g>
	<path class="st1" d="M159.6,501.4l-27.5,27.5l27.5,27.5l7.8-7.8l-19.7-19.7l19.7-19.7L159.6,501.4z M159.6,501.4"/>
</g>
<g>
	<path class="st1" d="M148.2,612.4h-15.4c-0.5,0-1,0.2-1.3,0.6s-0.6,0.8-0.6,1.3v42.2c0,0.5,0.2,1,0.6,1.3c0.4,0.4,0.8,0.6,1.3,0.6
		h15.4c0.5,0,1-0.2,1.3-0.6c0.4-0.4,0.6-0.8,0.6-1.3v-42.2c0-0.5-0.2-1-0.6-1.3C149.2,612.6,148.8,612.4,148.2,612.4L148.2,612.4z
		 M148.2,612.4"/>
	<path class="st1" d="M176.5,613c-0.4-0.4-0.8-0.6-1.3-0.6h-15.4c-0.5,0-1,0.2-1.3,0.6c-0.4,0.4-0.6,0.8-0.6,1.3v42.2
		c0,0.5,0.2,1,0.6,1.3c0.4,0.4,0.8,0.6,1.3,0.6h15.4c0.5,0,1-0.2,1.3-0.6c0.4-0.4,0.6-0.8,0.6-1.3v-42.2
		C177,613.8,176.8,613.4,176.5,613L176.5,613z M176.5,613"/>
</g>
<g>
	<path class="st1" d="M135.9,720.2c9.1-9.1,23.3-10.2,33.6-3.2l5-5l5.9,21.6l-21.6-5.9l4.6-4.6c-6.9-3.8-15.8-2.8-21.6,3.1
		c-7.1,7.1-7.1,18.6,0,25.7c7.1,7.1,18.6,7.1,25.7,0c1.9-1.9,3.3-4.1,4.2-6.7l7.9,2.8c-1.3,3.7-3.4,6.9-6.2,9.7
		c-10.3,10.3-27.1,10.3-37.5,0C125.6,747.3,125.6,730.5,135.9,720.2L135.9,720.2z M135.9,720.2"/>
</g>
</svg>
